/* XPM */
static char *result[] = {
/* columns rows colors chars-per-pixel */
"64 64 38 1 ",
"  c #5A5F44",
". c #52583C",
"X c #4D5338",
"o c #3C4228",
"O c #4A5036",
"+ c #575D41",
"@ c #5E6347",
"# c #545A40",
"$ c #474E33",
"% c #686B50",
"& c #64684D",
"* c #50553A",
"= c #61654A",
"- c #3F462C",
"; c #454B31",
": c #323820",
"> c #6D7054",
", c #353C23",
"< c #44472F",
"1 c #393E26",
"2 c #2B311A",
"3 c #2F341D",
"4 c #262C15",
"5 c #737358",
"6 c #212710",
"7 c #68644B",
"8 c #625E45",
"9 c #5C5940",
"0 c #7C7A60",
"q c #56543C",
"w c #8C7F66",
"e c #7C745B",
"r c #716A51",
"t c #504E37",
"y c #1B1E0D",
"u c #9D8973",
"i c #3E4032",
"p c #B09E8C",
/* pixels */
"o  9.*..# +@=@==8  @+@  +##+##########*.######X*.*# #+++#####+#$",
",@@#;1--;*X>5>5>%=@>@&&@+#.*X;;iiiii$<1;OOOOOO<i;;i#X+*<o$*X-$$3",
"18=&*--<;;; %5>+O$*=&=% *@.-:6442623:iO#& *X#.#X.+O**X-11oX#$114",
"3.>=*;-;OOXXO=%@ o1XX@=X<:462:1::,:244o+@% O# %+#%5+;1::33$..<o4",
"3#=@$$$*.X*-o75=@.+%..O263o$.#@  *@#$146:+&*;O+#+&5@o,:24:XOO$-4",
":+&@O-;X+#$;#>5%.;#%#:4:$+=%>%>05>5@  O:61 *-ii*@@#O,1:31<*o-1o2",
": =% OO*X.;*%>5%.o,$3yo+@%555000w00@.+& -4:#+###>r9$-$--O$-,-1,4",
", &%@+q O*X.&%%&@#O:y4o+# >5%ewupue =>r> -4,==& %55*<;<;O$11;<;2",
"o=%&%=@& XO+&>%&&&$4o-<9&%500wupppw&%0e5%#;2,++#=%5=.O$;$O1;;O$:",
"o& =>>&%%+<9=%&@&X3o+qtq>e00wuuupwe=5we55+to6*   >055=+X$# .<$X,",
"o@$ @&7%%+<9&%@@%3:X77&+=5e0uuuuuuer0077% 8*2, # 50w055+OO#.#X-3",
"2;X@@q87#-o =@#+$6o@8q%>&8%0wwuupuuw0>87%>@t14OXX@&e05>@$;*.O:26",
"6$8= +@.131;O#= 42;=O*>er==5w0wuuuwwe89%>>@t<62<1o-X++X-O..Xo24y",
"3&>=*$*o231,o;*X6, rt9%5>>9&e0wuuww0055%%55@<46;o,:O.;,,<t$--:3y",
":&%+.*o:,,,1o,,:6o&r8rq@%@ %5>euuwe05>5r#=>+o46;o-io-o-oo<o< $3y",
"2### +-,;;-X&O136O%er&X* +> 555wuw55>&&>%@+ ;34-;OO,:O*-1ioo.*:6",
"2*+&=.,:*.#%&X.;6X8ee&@8+&%@>50www5%>%%%5&99t,41OOX-o$O;;;<O;o,4",
"3* %+-ooX==@ . ;4*8e%&&&@@=%&>50we5>5>=>% 979,2,###OX+O  #*O-,36",
":.+=@##. 5% =+@o,O7e%& =@  &%>>ew0555>@>7t@5r<2:##*O*.$#%&@#*-36",
":* @@#O+%05=@ +4,;rr%%@>>%#97&%>5505>8 &9 &5rt2,$1<$X# *&>& #O,4",
"2$&% O*#=55=.+<6,;er8%=re>99qO98=&>%@X*##&=57t32,o%&@%5@@>%&.X<2",
"2.>&@##+.>0>+#361ter98=re>&9t*tq7%>7*.8%=8q77$14$$&>%%> X#==O.O2",
", %@@ @%*%0%+*66,*>%99%>57&9< @&>>>%@=&=%8<X.$-6X*;%%&=O1-+O;X$3",
":#+  +=%X 5%.-y4:< #..&%%=>%qq7%>>78 @@q@&*.--16-*$ @+$ooo;o;;-3",
"4-$.O*@&+;  .<y2117+O;*&%%%>=88 7>%8*+*$@&=%oo14,q#&=.**$1o-;-,4",
"y3-XXX9>&*-<#-y3-3tXo1$9+@%>%>=*#&=@X++q X*8o,:4o+ @&+ >#1---,2y",
"y621X**@ *-,O-y3,:,.--X # =%%>=X*=78q@+t<2-t13:21$ @&++>*:1<$-3y",
"yyy21$*#X;X<;-y33:4 *<$.  @=&%=O*88  *.-,2,123:1-<+7&&+ O,<.O;o6",
"6262,*#**.&.X<64:2y7.,1*.*#*8  -*8 .#;+;,3O6421-.* 7%%=+<-X  @$2",
"2;,-,1O*XO O:<34346+X:2-X$#X++.:o+O$#-t<2:+642O3qq =&%&%;$.+  *2",
"2O;.<,O*;$X:4112:33$1o62o<OO;;O22$,<91;16o ;oO<y4. @ &%=o;@&&@.2",
":.# .;#X;;,3oo6:-$5 1::64,o<-1-46:2;O3o,3OO%0X3363.  =%#<$@%&=*4",
"2. =#$*.;:2:-639,#&@-*&O3o1,;3334,1<$31oO<X$*,<r14o*# &XtX >r9.3",
"3#@=@ =@O:1o,69r1:-5O 0%*-X1$-412;*.O;<O&@8 $6t9:41;$@%*;9=>5&X3",
"1=>==@+*OO X13r&93o>%,X%eX*89& 1:9@ #-& <q=%$64-2,o$ %&*-+=&%>+:",
"1%% &=--.@%%X:%=O2- 7,:,;>+-<*7,,X-9X$uX62;.1;:62o,:;#@OX+.##@.,",
",+##>#1<%>>0+1 <6*o<*12y6q@X-3o3614rO..6y43$o7866o,33-.$**$X$# 1",
":*#@>O-X%>>59t36<0i1.X,62Ot7i16yy6yt3-ii2,1<;+r321X1,oo<O*O+.X.o",
":*+&&;o;.&%>.*247%1,@O<-#p%o,o466224y3pu;;t<1q;3-$+<OX,$#+X& *.,",
":.+@+<<--+&>=i.3 &,i ;O1$u04o-1--$$:3*u5;O*14-:X:;.$+*;XX$<OO;$2",
":* @ ;;;;#=55<$Xo;;;9###<O:o8r*7t%*$$1;*q==@*.-,4,X.=XO+&X3:$*X2",
"2$@%5 ;O=%$@><6,qt>#&.+$O.;+%7reqw%X.;,+rr>w%O1r12XO+OO@ $:o@@ ,",
"3#>&5&*+ &.X#,4611<o89X=9XX=O*w0Oee*8er&0w*0,1r%;o+O<-.X$#O;==@o",
", &=%&#=# =X,32<q$,2*$X&u>e8:&wO4<%;:eu#.X2<90=#X; +o,X;X#*X@  1",
":.+ =7...=@;:26<#@e :1<=5e%1:O8o1<XO69w-4:3q% X;$$=&O:O &=+  .X3",
"3O*9@&##+ O:<14o$O+5q3:o<-$4i<+79e -q2$34: 8oX#oOt>>*X%>%+*&=$-4",
"3X$.#.$$*#13--oi;-# 5934224:+t7wewr8734,275,o#&o+70>*%ee>XX&#OO2",
",*-;9.*.O$:3;1-,$X@# e84:23=8r77ewew7i4,tw@1$+$O w0+.505%O;.XXX2",
",.$*87@#* 1- <$2* @@=&54:4#>1w798r80qq3:i5@:o<1=rw@o >5=*O-$X;X3",
":qt#@r@O  <;=qX:o  &%%&432%<9r89XX<&3%,:3@ ,-:$#w&,3X@=+;;$OOX$3",
"2<t.@@$o#.;.@7<.2-@&%% 4:,.4e<9$8q376* o2#O2,@*rr;-#@#XO-;OO#=O2",
"4,;O*X;o$$$9=&7+ 3-*##1y,$;:qoO;<<4t:i>*,io:oX88o.&>5@;;$O*$#@X2",
"2,,1;.#XO$t# @wr@@o43:4yo+*o-<o1:,2,Xi%&-1@>;:r$: 5>5 $OXXO.=7.3",
"2o11-$.X--q++%0u8;r#q-o1;&%*$tt$<<O- $ %O5%:6<8o1O=>5@.+q*+&%&#,",
":$<;XX.X<*@ +%50=,1#>=q$9=>777r7Xrr.w.= 7<1o8>#oo<X %%=+.#  +  1",
"o.$O.. X-;. .&>%+.:3:oq7975.o-o<,t-,#Or781ew>+Xo1i$#=%&#XqX;.  o",
"o*O**#.O<O  # == O+@q;;et*@=3oo:,,2,=58<q00%X$#-1-*@@7=.$;OX+ @-",
"o.*+... .*@@&%@#.;<. 7to-1:+q9*O+*O-$=qo>00=$<*-:-;== +O-<+@@=&o",
",X*.#$.=q#@&>5% .O3:1o 5ww5oo-q89 O<2Oe>%>0&XO.;,o-#@X$.O$ 7=@@-",
",*X;#O#.q.&%=&=@Xoo:-$;@%>55-3o<2:1o7w>=&%>=.+@O,-;-XOtq$X 7%  o",
"o  *##@t*#%%@ #X<oX$;X$ %&%505998885e= =  +=.@%#-*.1,$O$$X =@8 o",
"o=&++ q<t9&=*-;O#.;X-<O+%%%%>=#%%5%#.&%&&#;X*=%@<;O-<+Xi<O.@@ @1",
"1+@+.<o,-q+X,-+ @ $O-o-$+== @+<-,O #;# O#X:;;O@*,::$ @X,3:o*#+ :",
"422246yy422662322244666642224466y646644446y66626y6y42246yyy64446"
};
