/* XPM */
static char *result[] = {
/* columns rows colors chars-per-pixel */
"64 64 22 1 ",
"  c #50563A",
". c #3A4127",
"X c #6B6F53",
"o c #5C6246",
"O c #545A3E",
"+ c #40472C",
"@ c #585E42",
"# c #454C31",
"$ c #4B5136",
"% c #656A4E",
"& c #606549",
"* c #2F361D",
"= c #21280F",
"- c #282F17",
"; c #353C23",
": c #707357",
"> c #181E08",
", c #76785C",
"< c #7D7D61",
"1 c #8D846A",
"2 c #998B71",
"3 c #AC967D",
/* pixels */
"$oo@ $  O@Oo&&&&&@oo@&o@@OOOOOOO $$$OO$ OO O@O OO  @O@@OO OO  O+",
";o&O#;++# #o,:,X%&oXo%%&@@O $.++.;;.+.*.#+.#$$##  .$$@ #+# $+##-",
";o&% +++#++#@:X@$+$O%&Xo @O$#**##+# #;#O&@#+$ O#$@$  $+;.+ O#.;=",
"- X& #+#$##++oXoO.. $Oo ##$oo+*+ #$o&o&&&X&$O@X@ %:@#;*;*;#O #.-",
"-O&o###   $++&:&@@@XO# ###$:,#===* X,,X +O% #$@OO%:o.;*--;$$$#+-",
"*@%o$+#$@O$#O:,XO#@X@+#+###o$--;;-. @O #.$@ ..+#@&O$..;*.# .+;.-",
"*@&%@$$$$#;.$Oo& .;+;*#+***--.$OO#;--;*+ O@&  $ O#;;*.;.$#+;+.;=",
";o%%o#;-====-==-*..#;=*=>>*#O@&%%o@O+-=-.$@%% +*==>=====*.;.###-",
".&%@;-=**;;;#+*;.*--;>>-;; &%%:1<X%%O+**--.+*-*.;.++++;*===.#$#*",
".%O*-*;# ##O&& $o +-===.  &%::,<,:%%X@ #.*-=-+O #@&o@O++.*-=;#$*",
".&;-;+$O&X:12<& +O%$#$.+$&XX:::,,:%%XXo ++$#$@+#o:111:o@$#.*=.+-",
"*+=; o&X<13332,%+&1%%%O$$OoX:,121<,:X%@ # %oX<# :<33331,%o +*=-=",
"===+ o:11,<11<,X#@1X<,&&O o%:<2331<:X&&%@%<:11#O:,<11122<X&O+===",
">>*#oX<1<XX,,XX&+$2X:&&%%&XX:<132<<:X%X%%:1<1X-#o%X,::<11<X%#===",
">=+oX,<<,:%:X&&$;.,%&%%&X%X:,<<11<,:X:XXXX1<1:-$@$@:XX,<1<:% *=>",
">-#@X<,,:%%&oOo *#,X%o@&X%%X:<<<<,,:XXX%%%,:<:*#oO &&%X:,<,X@+=>",
">-#OX<:XXo& $$ +=$%%:@&X,:XX:,<<<<:XX::XX%XX::**  $$oo&XX,<:o -=",
">-+@,,X%o$$.*;+-=.. %oX:,,,:XX,<<,XX,,:::%&%&X;>.+**#$O&%:,X@+==",
">-$&,,oO#;-===->*#; @@%::<2<::,,,,XX12,,X& o$@#==-==-*+#O%,:o.=>",
">-$&:Xo#-=>>>>>=#$;$#@@:<13<,12,12,:12<<oo$$++ ;>>>>>==- X,:&+=>",
"=-+O%%O;=#=>>>>;+--;+O# ,,,X:13<22,X,,<%#OO.*-;+->>>>.*=#%X&O;-=",
"--; %o+= 1+>>>=*->==+ +;$%@O%:,X:,X@@&o+. @*=>=*->>>>%<**O:%#-;-",
";.=+#+=.X: >>>=>>>=-+o ;-# +O@%Oo&@## ..$O *->>>>=>>-,,%=;o@*=+-",
"* --+;=o@&: +->>>=;*$o@#.;+#+;+.++.#$.. oOO.**>>>>.O&&# *=#*>*#-",
"-$+>*-=%@ &&&@>-=.##O &o%$.;**;*;;**.+o%%%@$+#--=.<<X  o#>->=#.=",
">*$->>=%%O$# o=--.$$OOXXX:@;.O@$OO$;#%:%X%oO$#**>#:%%@@:#>>>++->",
">=;.=>>oo +;#OO->*#@@ X:,<,o&<<X<1:@X<<:,oOoO.->.oo&X@@:+>>;@+*>",
">>=;.>>@$#$++@,%*#+O%$@<<,<<,22:<3<,<,<<:#o&#+.+% O%X%@&+>-X #.=",
"=-=-#.-o  %O# @@.+;oX@+:1<X<121X,212X:11O#XX#+$$O$@%:X&&O*X%@o#-",
"-#;+; ,& $@$;.+;=;$@ ,%X22,%231OX23<%12<&XX$%+;-+ @&%X%%o:%@oo -",
"-$#O#;  ##$;-**=;&%&; 123331,32 ,31,23332:.$X&$--+@&oX%@+$o%%o -",
"* Oo #O$##;*.#*$%:&@*. ,<1221,1&12:2111,%#-$%XX&.-#@o&% +#oX%& -",
"-O@&O$  #*-;$#+%:&O&+++;.+#&<&< :%:XO.+;.$.o,,%o#-;$O@& $$@XX@ *",
"*O&&&o&o$*..##.OX@%,@*-;*=-++$#-++ .;=-;**OX<,%$.-*+$oX #O&X:%$*",
".%,%&&@ $$o$  +@&%o:%#-==-*;.;+-;.;+**=--+%:<,,X+=-+@%% +O&%%X@*",
";X:o%&++ oX%&$$::,O@oO$;.  +$ @&oO ##$#.+O@&X,,:$=;;#O@$$@OOOo *",
"*@OO:O;+%:X,<O#O%X+.+;*$@%%+&:%1,%X$$X@O.*.# &: +-+-*+$$  #$ @@;",
"* O&:$.$%::,<:.*@ ;==>>;oX&OX2,<:1,# X& =>==-$@.-+.;;##$$  @@O .",
"* @%%#;# %XX<<@-.+=>=>>#%XXo,2<@%2<$o,&%->>>>*+-.$;+$O#$O@O%@  ;",
"* @o@++.+@%X:X,@--=>=-+&:1X :2<X133XO1<% *=>>=*+@#$#@O    $ $#$*",
"* @o@#++#O&:&oo<,.>>*+O&:1@#<31&1332o12:o$;->>oX#$$ & $@%@#+$ $-",
"-#o%:@#$&X#oXO X% =;+-;$O1@%<X2@<1%2:11@#-;.*=#O O$$@$$oo #$o%&*",
"-OX%:% @@%O$ +$&;;*#$*.% 2,1@+<- :;1,2%@O-.$.- %o@@$ $   @$$&XX;",
"*@%&X%O&O@&$**.@#&.$+*#,%:,:** >;$>o<<@,%*;#.$:@ooo@$#  O@  &X&;",
"* Oo%&OO &&#*-*# O;+$*#%,&,o>==--=>;,X%:o*+#*+ @%&%%$.$o%&@o@O -",
"-$ O&%OOOo$*;*.+$.*$ +@O&%:o=-*.;*=.,%X %+$ +-# X,:XO %X%O %&#+-",
"*$# O #$ @.*..+$#-.@  1#.X%X+O& $:.O:%@;,:$O =*$X<<XOX,,X$$%O$$-",
"; +#O $$ O**#$+#** @@&2#* @:%X,%X<o,&o.;X1$&#;=.X<,O :,:%$# $ $*",
";O# &%oOOo*+@@O;=. %O&1$-+#O@@@ Oo@o$$-.X1#X$+*-&,&.@::& $$$$#$*",
"*  OoXo$&o.#@O@*=; @+o1 *+ @$ &#Oo#@  *.X<+ o .-oo+.O&&@##O$$$#-",
"-+$O&o#.@O+ o&O**+&O; XO$+ @oO:o%% % $#$%&.;$+.-@$#O&O   OO# &$=",
"=;#$  #.##$@%@&.*$@%*$% O+# %$%#@@ %#+ $%%;+%+;=+O%X,o##+##+Oo$-",
"-;;.# O$$#$O@o:O-#&:**$#$#@$&O%#oooOO$$+O#-O& ;-+@:::o##..# &% *",
"-.;.+$O$.+ O@%:X*.OX#=;$$#$ :%X@%&,@ .$$#-;o%+*;+#&X:&O@$$O%%%O;",
"*$+#$$O$+ o@O%:,;.#O+**$%@+.# OO@$ .+$%%$.. $#-...$@%%&@ O@o@@o.",
".O$$OO@ +#OoO%X,@-.+*.+#o ;.++....++. X&O#;.+*; ;;$@&%%O O # @o.",
". $  OO$+$@oOo&%:$**=*;#$;=-;*-=-*;*=; o@+=-*.o$.. %%X&O##$$@&o.",
".  @OOOoO &&%%oO  OO.=-.-+%+-==>==-*&o-;+=-O%@ +;.$%%@O$++O&%%%.",
";   O#O& Oo%::Xo $*;+;+$ :Xo++#$ @%:%%&o&O%X $O$.+#@&$#O$#@XX&&.",
"; $#O$OO O%%&%&o$..*+  %:XX&+*+#++O%%@o:,::& O&$.+#+$$$O$$oXXoo.",
".@@ OOo$ OXXooO$+.$#+$#oX%XX%#OX&O#o%o@&ooO& o%O+ O.;##+# oX%oo.",
".&%@@@ +$O%& +#$O #$.+$@%%%XX@#o@%o  %%%%O#  &%o++$++@$;.# &ooo.",
".@o@ #.;+ @$;+@@o@#$+++#@&&@&@+.>#oO#O@. $;##$o *-*#@& ;-*. OO@*",
"-*--==>>=--==-**-*--====--*---==>=-==-=>-=>===-=>>>-*-==>>==---="
};
