/* XPM */
static char *result[] = {
/* columns rows colors chars-per-pixel */
"64 64 77 1 ",
"  c #4B4E35",
". c #44492F",
"X c #585E42",
"o c #333621",
"O c #4E5439",
"+ c #474D32",
"@ c #41452D",
"# c #53583D",
"$ c #5D6247",
"% c #51553B",
"& c #5B6044",
"* c #63684C",
"= c #420301",
"- c #565B40",
"; c #676A4F",
": c #5F6549",
"> c #3C4129",
", c #4B5137",
"< c #3C3B28",
"1 c #2B3119",
"2 c #393723",
"3 c #443F2B",
"4 c #6B6E52",
"5 c #311F10",
"6 c #464832",
"7 c #373D25",
"8 c #76765B",
"9 c #5E5B43",
"0 c #7F795F",
"q c #6F7256",
"w c #5A573F",
"e c #514F39",
"r c #302614",
"t c #232012",
"y c #A08B72",
"u c #433522",
"i c #430704",
"p c #272913",
"a c #461E14",
"s c #302F21",
"d c #877C63",
"f c #382615",
"g c #312C19",
"h c #2E1A0B",
"j c #59513A",
"k c #30321C",
"l c #645D47",
"z c #29271A",
"x c #938067",
"c c #4A412C",
"v c #7E7259",
"b c #736C53",
"n c #4D4731",
"m c #3B2D1C",
"M c #6A634B",
"N c #43100A",
"B c #65644A",
"V c #1F170C",
"C c #786F56",
"Z c #534A34",
"A c #785E44",
"S c #6F684F",
"D c #8F7961",
"F c #4C3726",
"G c #523E2B",
"H c #432C1C",
"J c #6E553C",
"K c #98856C",
"L c #A9927A",
"P c #3C0D07",
"I c #89735B",
"U c #5B4632",
"Y c #130F09",
"T c #4D241A",
"R c #7F664F",
"E c #3F180E",
"W c #63523C",
/* pixels */
"Nun+@>.@6%,---X9w,%w%-#%O+,, +@6@><o++66+.6O +>.+@@,@,%%#-w#@uHa",
"=iNH<s>2<O q8484;:&4&**:- OO.o<ssstYo1Yk>o<<,,o<,,o%6-#+X*lFNiih",
"h=NiNm>@6+.&;qqX +O$**q$%#+@otz6@>szsYY,#66<s<#o<<s@,%@7#<EiEPPr",
"rP5fPPf2   +OB4$&>>OO:: +% 7pVp@XO6s77@,-4:+o6&+.ozpo11k2hPHuP5p",
"r5hfuHfruZee%MSB$#-4##+.X;ql@zr3cm<@ 44$#.$O36 eZ2@6.ncmfHucm5ft",
"1r5mGnnHHUvxbvIbBbCb#>>w*9wUFmENiPfuGj9$:n ,3elMBCvbvRUGUjnFfmmr",
"kkffGjwjUFGSCwbvddKZ@> ZuHHu33uHHmucuHHHne6,3by0dCBwJGUSlwjFfugp",
"77k5go.ew9WUR08S;48eZuFFuc%w9#.j9n+:#wn3FFuc B8*MbMAUAC9# 75mo1p",
"ggkr5<.+,XSnGJvxyq9jGnwXX$;*;e::$;%l*4*&XwZGG9$xKRJUZM*%++m5kokp",
">3115m>oO4q:XjGj;MWWw*qq8qvq:$4444;$4C8q8q49jWJMWGj$X4q:>orr1pkg",
"o>7ogf2k.&%X*;wGUJAv4q880084*;$;4$*4*q00080;8CJWU9;4&#-#orr7op1t",
"k22op5g7.Xj  >OWJJA880IIv0q$44qCvb44:*0v0I00bAJSlw.@, 9O75r11ptV",
"7.opr5hr>%&-ecFSvRJJRDDxdC$:880xxD884X;0DxIRJAvDvju #XX6ghrprttV",
"@:%@krh526>,eFw4IDvAJAID8:*b0dyyyyKdv4:;dIAJAIDDvBGc%.>35hrgpgst",
"<;;-nkrhs3k3uc%vCvdxDRJw*4vIDyyLLyLxDIC;wUADxdvCdwemcoumhggg2>st",
"s-%%&X>hh23gm3cCBvxxyDnGWbIDKLyLLyyyxIRlUcSyKDxMSl3m5235r@k22>ot",
"sO-:*#<himgfZ63<jxxyKM%lJWRxyyyLLLyLxRJJM$%IyxxC3<cnH5fP3+.+>2o1",
"s%X*->7riNhg@# 6CKdLv &4vAJAKyLLLLLDRJAv8*#wyydxw.w+2hPTX#O @ktp",
"7%X:X--ea=No2#O;ddDKw%:q8dRAADLLLLDARRx08;$6vxDd0##6zP=F;*$#%>tt",
"7%&$,%6%a=a@3#-&*BdS+#;Sd0vKAAIKxvRIxybxbb$,w00$;#&nmi=ij4*&# op",
"s.$4X Oci=iuoS.>6MbjB;wMK$LKdIRRARyKxLBCx%B*990n kBehiFiTB$:%O@1",
"o#q*:-#aiFia2967eMB0dbSK9lLdDIARRAIDxKj0yMS8vnwl<kB6PTBaiZ$$,#+o",
">&;::&ZNElTPk@.6eX8dxddLlCLvARIyKAAJd0DxIxd$jne#O+-fijBu=HX +%+o",
"7-X&X-c=H*lNH+<ne#000q8KydxAACKyKDAJACyd4vq92c0l4:-fa%+mPa.76.>k",
"g@ #.,a=c#&H562Ze#*:4qdxDJAIxCxICdCIRJRIx0:X 3;9,@2PG%%eaim>.+Ok",
"ts+OOeNN9X,khg7 #b>.>7jIAWvyLyCMMvyDvlJAR6g>3@;6o1Va9-&qG=f@>6%o",
"Vts<OciaX%@phhoO#b9kztfUAb:KLybvbbKDBvDJFgt7k6$.<5PZ$X-4Z=a.++,o",
"VYVt>m=T +O>fNh%BMs<oucc80 l0CwMB:d4 C86<Gg3z63.c=Tl$$X$,PaeO+ 7",
"tgtz<a=u%#;X@fh>:#ruW2qOXq <$XO 3Xqw<&-o;-uWr9<oaiZM;&$X.ENn&&+o",
"z 2+sPinO $@pofrCcGudl932O2s<@<oz.-2z.o>BedlHG2t5mw*;&:;.EiZ&&Oo",
"k+@X.Eic.+Ozs%n5UF9@B89zz1p32ttstpk7zgtn3Cqe.3m55o#:&&:*.Eij*&6k",
"7%-&#ai3.+oz.&n5FZX@;B @<geej2se236+<o2Me&l6%CZ5fg@&&$*-+aiW;:.p",
">#&:-aic+ort3cuuuwMZMb0-s<X;de>;3M0*9<@&xB@>jxcfGHrc-X*# aiWS9%o",
">X&:$TiZ,ooh5F9-HG39-Cy%gsoMyM.:>0d*3gS$dyM,dCfZq2hiH-4O@ail8*,o",
"@*;*BT=n,uNif6B <u6eCl0e 2tlxxXb#xy9s6%6qdK803f0bprEiaZO>Eij4qX7",
"<;;X*Z=aaiNZ-1o2omcwB3<ZM,zjDy;M;yye>bZoB$S$Mfuv2>>kfNiH@EN -$%>",
"s-O%qZ==NFl88@p.6uG<w9e%9Xs 0y8;qyd6.9<w -* cf2>1e@gk3TiN=a,%&&@",
"sO-&9H=NZ*480q#+<omre6uln;<obxv*xy43ww%6+2bOuu,@>@ooo++HN=NeX#%@",
"s%-cEPPie*4q08*$k<m5z>>9#b<YlDSBxK%t8Be<<z<3u2++,oo. #. a==aGO#>",
"7caiNgf=u-*qq4*:k zfVzk6;0<Yzvv9LCtYMq%zzggf37+++@,+X#% ENuNiaco",
"fN=NF2m=E3 9e   o62rhVVm;d3VYZS3d6VVM83rgtr53z3cuucnjccF=auHE=N5",
"====ii===iiiii=Ph55hhVYVUAGVhfmtFmhfJWr5Vhhh5hPii==iiiii==i=====",
"ETTTTTTa=NTaaaH5u<crtVVt3bvrru3tjmrnbjgVYV533m5ETTTTaaa=NTaaTTTa",
">X*:;*-wNNwOkkoo:&62VVt2o0K3o6etB<2S0+<zYVmS;e32&&&- .FiG-%%&&->",
">#X&*B##FiF+kgp684 <YYhssSdn366g9>@0q<>sYV<4bX <::**O<NaB*-&&#O7",
"7O%X$*-#wai2>7kedl9sYYV5enMd<>,39<v9 %>zYVj;4l+<;88q#EiZ;#,*$+.k",
"7,+%-#++%nNN>@o.bCB@YYY5loe0&-# *SbSwwtYYp$84j.@400qF=Gvb  * @,k",
">O>+w#O#,+m=H,.@>M8-zzt5mgg:-:*,;Xw;>2tfY>qd%<O:q08jNTSq96>,6+Oo",
">%.%BM:#%92fiFB k<K43l2mf3t6g-Bs:@wso sJsj0dzoX;48lNal8&,..+O.,o",
"2ee#$S$ &9.6aiU;Ozb0@dozHW392ecz6oZsw zI3wKMt2 :;&ain$*-..-. %+7",
"k3n#:$.7-#.#jaiU;@<Kjy@zzmjlB8; 0eBn62my#$y2<< $9aiG:#OO,OO6-*.1",
"1o@  ,@2++ w;wTiGe2ye8%z<munCdq;0lls>rZ068dz,#qcNNU48&>OO,O.-&O1",
"1sgo.%-,,+ #;4;UiNuyj<bssf53 M9X; n62rwslKS7%XGiPZqq8#o,#O OBlOo",
"17os7+#O>@jX4qqqUafjesl3nVhj%vewb9M2hgwg0dS%nTiE2,:4qX%X%%-*4:%>",
"o...,O#O@%$$:;q8;@cfmzk w35m,CMMb%@t5z><eSlaiNFuko,$;;:-##X&-&&@",
"76+ ##XO@.#$#*q4&>s@th5m2  mr7o772nf5o<ctufNHn#<os6X*;*-OwO+%&9@",
"7  %%-#,. X&-*8;:Xk2pVt555mmfZc9nMufrVhhh5rZ+.X@2>-*:B*#++,,-&&.",
"o+ X###&#O::*q8$-;O>ztz%35r55fffff555fugto&* .O<o@+;*X-+@@-:$:&@",
"7,%%- #:##$*q8q$-X%%,zz*b2<jc5mccHffgWCg2;8*O #.o@.-:O+e +9M:$&.",
">OO.-,--&X*;*;:$-e%##.p>b9g.jfcq9mg7zb9k&;4*%-:,7@+@,+ j OXB;&&@",
"@X&%##:#-X44$:&&-+O#+O>k7w2@&mf9u5,#z%%:&&-*%$;#@O#77.+@+O&:$9&@",
"@:*X-&$-%$;:$*4:$#%%,. O-- #4jNaNF4:6%4q;-+O#*;&..+>.-O7<+%$$&$@",
"@X$--#X-OXXXX$;$$XOO,.@+X::X:$H=NZ$;;*;;;:..-$:%org+X$,2g1>%#-&7",
"11111111111111k111ppppppp11111tPhp1111k111pp111pVttp11ptVVtp111t"
};
