/* XPM */
static char *result[] = {
/* columns rows colors chars-per-pixel */
"64 64 10 1 ",
"  c #483718",
". c #593F1E",
"X c #724B27",
"o c #674623",
"O c #513B1B",
"+ c #875730",
"@ c #5F4220",
"# c #30250F",
"$ c #784F2A",
"% c #3D2E14",
/* pixels */
"OOOO...   #%.OOOOOO.OOOOOO % #%..OO%O%# .OOOOO%O#%OOOOOOOOOO.O%.",
"  oXXXX.X@#@+.    oXO@..@ O@$#.+XOo.$ %X$O  O..+#O+.o. @@.oOXo.+",
"  oXXXo.Xo#o+o   OX$O@..@  o$#.+XOX.+ %$+oO @o.+#O+.o. @@.oO$X.+",
"  .XX$@OXo#o+XO  OXXO@..@  o$#.+XOX.+ %$+Xo@XX.+#O+.o. @@.oOXX@+",
"O OoX$@OXo#o+XO  .XXO@..@  o$#.+XOX.+ %$+XXXXX.+#O+.o. @@.oO$X.+",
"@  @Xo.OXo#o+X. OoXXO@..@  o$#.+XOX.+ %$+XXXXX.+#O+.o. @@.oOXX@+",
"o OO@@O Xo#o+X@ .XXoO@..@  o$#.+o X.+ %$+XX$XX.+#O+.o. @@.oOXX.+",
"XOO OO OXo#o+XX.oXX@ @..@  o$#.+@ X.+ %$+XXXXX.+#O+.o. @@.oOoX.+",
"X.  O  OXo#o+XXoXX$@ @..@  o$#.+. X.+ %$+XX$XX.+#O+.o. @@.o @X.+",
"X@    ..Xo#o+XXXXXX. @..@  o$#.+OOX.+ %$+XXXXX.+#O+.o. @@.oO.X.+",
"XXO  Oo@Xo#o+XXXX$X. @..@  o$#.+O.X.+ %$+XX$Xo.+#O+.o. @@.oOOX.+",
"oX@  .X@Xo#o+XXXXXXO @..@  o$#.+O@X.+ %$$oXXXo.+#O+.o. @@.oOOX.+",
".XX.OoX@Xo#o+XX$XXXO @..@  o$#.+OXX.+ %$$@X$Xo.+#O+.o. @@.oOOX.+",
"OX$X@ooOXo#o+XXX$XoO @..@  o$#.+@XX.+ %$XOXXo..+#O+.o. @@.oOOX.+",
" oXXoX@OXo#o+oXXXX@  @..@  o$#.+oXX.+ %$X @o. .+#O+.o. @@.X.OX.+",
" oXXXX@OXo#o+@X$X$@  @..@  o$#.+$Xo.+ %$X O.  .+#O+.o. @@.X.Oo.+",
" .oXX$. Xo#o+@XXXX.  @..@  o$#.+$X@O+ %$X     @+#O+.o. @@.X@Oo.+",
" OoXXoO Xo#o+.XX$X. Oo..@  o$#.+$X@O+ %$X     .+#O+.o. @@.X@Oo.+",
"  .XX@ OXo#o+.XXXXO Oo..@  o$#.+$oOO+ %$X     .+#O+.o. @@.X@ @.+",
"  OX$@  Xo#o+O@XXoO Oo..@  o$#.+$@ O+ %$$O   ..+#O+.o. @@.$o .@+",
"O O@@O  $o#o+ @XX@  Oo..@  o$#.+XO O+ %$+@O .o.+#O+.o. @@.Xo O.+",
"O  OO  OXo#o+ .XX@  .o..@  o$#.+o  O+ %$+X@.oX.+#O+.o. @@.XoO .+",
"O  O  OOXo#o+ .@@.  .@O@@  o$#.+O  O+ %$+XXoXX.+#O+.o. @@OooO .+",
"@     ..Xo#o+ O..O  @@ @@  o$#.+O  O+ %$+XXXXX.+#O+.o. @@OoXO .+",
"oO    @@Xo#o+  OO   @@ @.  o$#.+O OO+ %$+XXXXX.+#O+.o. @@ @X. .+",
"oO    @.Xo#o+       o. @@  o$#.+O OO+ %$+XX$XX.+#O+.o. @@ @X@O.+",
"o.   O.OXo#o+      OX. @.  o$#.+O OO+ %$+XXXXX.+#O+.o. @@ @XoO.+",
"..   O.OXo#o+      .X. @@  o$#.+O @.+ %$+XX$XX.+#O+.o. @@ @XoO.+",
"OoO  @@OXo#o+      .X. @@  o$#.+O o.+ %$$oXXXX.+#O+.o. @@ .$X.O+",
"Oo.  @. Xo#o+      oX. @@  o$#.+OOo.+ %$$oXXXo.+#O+.o. @@ .XX.@+",
" .. @oO Xo#o+O     oX. @.  o$#.+O.X.+ %$$@XXXo.+#O+.o. @@ OXXo.+",
" Oo.o@ OXo#o+.    OXXOO@@  o$#.+.oX.+ %$XOXXX..+#O+.o. @@ OXXo.+",
" Oo.o.  Xo#o+oO   .XXOO@@  o$#.+@XX.+ %$XOoXo .+#O+.o. @oOOoXX.+",
"  .o@O OXo#o+X.  O.XoOOo@  o$#.+XXX.+ %$X .o. .+#O+.o. @oOO@XX@+",
"  O@.   Xo#o+XoO OoX@ Oo@  o$#.+XXX.+ %$X O.  .+#O+.o. @oO @XX.+",
"   OO  OXo#o+XX. .XX@ Oo@  o$#.+$XX.+ %$X  O  .+#O+.o. @oO @XX@+",
"        $o#o+XXo.oXX. .o.  o$#.+$XX.+ %$X     @+#O+.o. @oO @XX.+",
"      OOXo#o+X$XX$XXO @X.  o$#.+$Xo.+ %$X     .+#O+.o. @oO .XX@+",
"O     OOXo#o+XXXXXXXO @X.  o$#.+$X@O+ %$$O    .+#O+.o. @X. OXX.+",
"O     OOXo#o+XX$X$XoO oX.  o$#.+$X.O+ %$$O    .+#O+.o. @X@ OoX.+",
"@O    ..Xo#o+oXXXXX@  @X.  o$#.+$o O+ %$$@O  O.+#O+.o. .X@ O@X.+",
"o.   O@.Xo#o+@X$X$X.  ooO  o$#.+X@ O+ %$+oO O..+#O+.o. .Xo  @o.+",
"o.O  Oo@Xo#o+OXXXXXO  ooO  o$#.+X. O+ %$+o.O@@.+#O+.o. OooO .o.+",
"X@.OO.o.Xo#o+ oXX$oO Oo@   o$#.+o  O+ %$+Xo@oo.+#O+.o. OooO .o.+",
"oo.OOo@OXo#o+ @XXX@  .X@   o$#.+.  O+ %$+XX@XX.+#O+.o. OooO O..+",
".o@..o@OXo#o+ OoXo.  @X@   o$#.+O  O+ %$+XXXXX.+#O+.o. Ooo.  .@+",
"Ooo@oX@OXo#o+  Oo@   @X@   o$#.+O OO+ %$+XXXXX.+#O+.o. OoX.O O.+",
".oX@oX. Xo#o+   OO   oX.   o$#.+O OO+ %$+XX$XX.+#O+.o. OoXoO O.+",
" oXXXXO Xo#o+O      OoX.   o$#.+O .O+ %$+XXXXo.+#O+.o.  @XoO O.+",
" .XXXX. Xo#o+O      OXoO   o$#.+OOo.+ %$+X$XXo.+#O+.o.  .Xo.  @+",
" OoXXX. Xo#o+.      @XoO   o$#.+O.X.+ %$+XXXX..+#O+.o.  .XX.O .+",
" OoXXoO Xo#o+oO     @X@    o$#.+.oX.+ %$$oXXX..+#O+.o.  OoX@O .+",
"  @XX@O Xo#o+XO    OoX.    o$#.+oXX.+ %$$oXXo..+#O+.o.  OoXo. .+",
"  OoX@O Xo#o+X.    OXX. OO o$#.+XXX.+ %$$@XXoO.+#O+.o@  O@Xo.O.+",
"  Ooo. OXo#o+XoO   @XoO OO o$#.+$XX.+ %$$.XX@O.+#O+.o@  O.oX@O.+",
"  O@@O  Xo#o+XXO  OoX@  .. o$#.+$XX.+ %$XOooO .+#O+.o@   OoXoO.+",
"   ..O  $o#o+oX@O OoX.  .@ o$#.+$XX.+ %$X @@  .+#O+.o@   O@XoO.+",
"O   O  OXo#o+.XX@O@XX.  .@ o$#.+$XX.+ %$X OO  .+#O+.o@O   .oX.@+",
"O     OOXo#o+ oXX@XXoO  .@ o$#.+$XX.+ %$X  O  .+#O+.@oO   .@Xo.+",
".     O.Xo#o+ .XXX$X@   @o o$#.+$XX.+ %$X     .+#O+.@X.   O@Xo.+",
".O    @@Xo#o+  XXXXoO  Ooo o$#.+$Xo.+ %$X     @+#O+..o@O   .oo.+",
"@O   Oo@Xo#o+  .oXo@   @X@ o$#.+$X@O+ %$X     .+#O+.Oo@O    ..@+",
"o.   Oo@Xo#o+   .o@    @Xo o$#.+Xo.O+ %$X     @+#O+. o@O    OO.+",
"o@   Oo@Xo#o+    .    @XXo.o$#.+X@ O+ %$X     .+#O+o ooO      @+"
};
