/* XPM */
static char *result[] = {
/* columns rows colors chars-per-pixel */
"64 64 256 2 ",
"   c #5A3F1E",
".  c #3C2E14",
"X  c #372C13",
"o  c #B55903",
"O  c #473718",
"+  c #312811",
"@  c #B96419",
"#  c #8D5B33",
"$  c #2F240E",
"%  c #553C1C",
"&  c #FFBC49",
"*  c #BF5D02",
"=  c #FFC245",
"-  c #C06A1F",
";  c #583315",
":  c #023E3F",
">  c #075052",
",  c #2A2A2A",
"<  c #624420",
"1  c #323432",
"2  c #744D28",
"3  c #FF9B43",
"4  c #750000",
"5  c #383837",
"6  c #7A7979",
"7  c gray18",
"8  c #660101",
"9  c #7C0000",
"0  c #E0D703",
"q  c #514F4E",
"w  c #959696",
"e  c #513219",
"r  c #414040",
"t  c #570202",
"y  c #FF973B",
"u  c #DC0404",
"i  c #00C4C5",
"p  c #6E0303",
"a  c #027879",
"s  c #FD4040",
"d  c #494848",
"f  c #BA0101",
"g  c #103737",
"h  c #E1E1E1",
"j  c #F3F4F4",
"k  c #AF0101",
"l  c #DCD208",
"z  c #960000",
"x  c #D8CF04",
"c  c #FD5B5B",
"v  c #A60101",
"b  c #046262",
"n  c #FE7070",
"m  c #4A3818",
"M  c #FF9438",
"N  c #4F3C1B",
"B  c #6F4926",
"V  c #FD7C7C",
"C  c #FE6363",
"Z  c #1A3031",
"A  c #064A4B",
"S  c #535555",
"D  c gray51",
"F  c #F23131",
"G  c #4A3C17",
"H  c #684622",
"J  c #C8C9C9",
"K  c #5E5F5F",
"L  c #D9DADB",
"P  c #037071",
"I  c #1D4A4B",
"U  c #513017",
"Y  c #CE0101",
"T  c #02B8B8",
"R  c #820101",
"E  c #028A8B",
"W  c #FE4E4E",
"Q  c #591E1D",
"!  c #1E3F3D",
"~  c #8E0000",
"^  c #890000",
"/  c #9D0101",
"(  c #FA1111",
")  c #9E0F0F",
"_  c #01AAAA",
"`  c #08696A",
"'  c #01D3D3",
"]  c #0E4546",
"[  c gray92",
"{  c #FD5252",
"}  c #232121",
"|  c #A5A5A5",
" . c #5E0101",
".. c #A2A0A0",
"X. c #009394",
"o. c #125556",
"O. c #756A6A",
"+. c #6C6D6D",
"@. c #FD2E2E",
"#. c #8C8E8E",
"$. c #855631",
"%. c #FC6A6A",
"&. c #135C5D",
"*. c gray45",
"=. c #3D1415",
"-. c #646565",
";. c #4D0707",
":. c #5D886C",
">. c gray82",
",. c #4E381A",
"<. c #ADADAF",
"1. c #54654C",
"2. c #E4D904",
"3. c #3E2D2B",
"4. c #027F80",
"5. c #F89A44",
"6. c #02E2E2",
"7. c #610F0F",
"8. c #197273",
"9. c #585858",
"0. c #00E8E9",
"q. c #F03F3F",
"w. c #FD3838",
"e. c #285454",
"r. c #2F4A49",
"t. c #80740B",
"y. c #59470C",
"u. c #9D9E9E",
"i. c gray70",
"p. c #FC7676",
"a. c #08FEFF",
"s. c #029E9F",
"d. c #DC4545",
"f. c #0E7C7D",
"g. c gray74",
"h. c #64BFA2",
"j. c #745E59",
"k. c #5F977B",
"l. c #54480C",
"z. c #5B8D8D",
"x. c #7B502B",
"c. c #426060",
"v. c #EF0404",
"b. c #FB2525",
"n. c #CCB10A",
"m. c #90820A",
"M. c #81640E",
"N. c #E4E8E8",
"B. c #03595A",
"V. c #404C4C",
"C. c #63AC8F",
"Z. c #E6DA06",
"A. c #441D1D",
"S. c #FEFEFE",
"D. c #FBC794",
"F. c #554340",
"G. c #985D16",
"H. c #03F3F3",
"J. c #2A6565",
"K. c #625614",
"L. c #E3D408",
"P. c #F05656",
"I. c #CCCD4F",
"U. c #7E0C0C",
"Y. c #536E66",
"T. c #F9841D",
"R. c #2D4639",
"E. c #140000",
"W. c #76CBC3",
"Q. c #C0C0C2",
"!. c #644141",
"~. c #AAA54D",
"^. c #66CFB1",
"/. c #2C7D7D",
"(. c #F36161",
"). c #C3960A",
"_. c #C7933A",
"`. c #14A4A4",
"'. c #B7B8B8",
"]. c #FFBF0F",
"[. c #785B1B",
"{. c #E9E231",
"}. c #63BDBD",
"|. c #9E6A37",
" X c #268989",
".X c #00DBDB",
"XX c #4E3434",
"oX c #A38C13",
"OX c #D57B23",
"+X c #FDCF4C",
"@X c #D09E42",
"#X c #D6B544",
"$X c #E3DE45",
"%X c #EDAD6A",
"&X c #079595",
"*X c #300000",
"=X c #637D7D",
"-X c #6F9999",
";X c #D2CA04",
":X c #713B3B",
">X c #701713",
",X c #1B1B1B",
"<X c #F7F49B",
"1X c #E9B51A",
"2X c #BA6F05",
"3X c #D2C177",
"4X c #2A2117",
"5X c #FAF9C0",
"6X c #342722",
"7X c #5C4717",
"8X c #E42325",
"9X c #F88E8E",
"0X c #2A220D",
"qX c #31B5B5",
"wX c #E06E6E",
"eX c #F24D4D",
"rX c #625250",
"tX c #01FBFB",
"yX c #5C3839",
"uX c #C71B1B",
"iX c #AD726A",
"pX c #D07613",
"aX c #D41C1C",
"sX c #E4DF85",
"dX c #EBAB81",
"fX c #F5F670",
"gX c #D3A867",
"hX c #B8820D",
"jX c #BBBBBB",
"kX c #7A8787",
"lX c #EB6D6D",
"zX c #499C9C",
"xX c #65C6A8",
"cX c #68AFAF",
"vX c #E63535",
"bX c #801818",
"nX c #6B7C4C",
"mX c #A39F00",
"MX c #7D4705",
"NX c #7A2525",
"BX c #FBF04C",
"VX c #D5CF2B",
"CX c #B97835",
"ZX c #EFC376",
"AX c #EDAD4F",
"SX c #86A0A3",
"DX c #AA1414",
"FX c #C13232",
"GX c #BBB76B",
"HX c #D7C0A1",
"JX c #656102",
"KX c #BA5C03",
"LX c #5E5F48",
"PX c #989569",
"IX c #5A2E13",
"UX c #3C2C03",
/* pixels */
"% % % % . ,.. $ O % % % % % % % % % % % % % % O O O 0XO % % % % . % $ + ,.% % % % % m . ,.0X. % % % % % % % % % % % m . ,.0X. % ",
"B B B B   x.,.X B x.% m m m ,.B B N < N < % O m B < + < $.H N B % $.X O x.B N m m N % < 2 $ % $.N B N O H % <     2 < < 2 $ % $.",
"2 2 2 < % x.,.X 2 $.  O O m % 2 2 ,.H N < % O m 2 H + H # B ,.B   $.X O $.x.< ,.,.< H H x.$   $.N B N O H % <     2 H H x.$   # ",
"2 2 HXsXVXL.x ;Xl L.l x x x x l l x l x l x x x l l ;Xl L.l x l x L.;Xx L.L.l x x l l l L.;Xx L.x l x x l x l x x 0 1X_.MX$   # ",
"B 2 <XBX+X= = = = = = = = = = = = = = = = = = = = = = = = = = = = = = = = = = = = = = = = = = = = = = = = = = = = = & pX. $   # ",
"< 2 {.+XOX- - - - - - - - - - - - - - - - - - - - - - - - - - - - - - - - - - - - - - - - - - - - - - - - - - - - OXT.KX+ $   # ",
"N H 2.& @ < ; ; ; ; ; ; ; ; ; ; ; ; ; ; ; ; ; ; ; ; ; ; ; ; ; ; ; ; ; ; ; ; ; ; ; ; ; ; ; ; ; ; ; ; ; ; ; ; ; ; U G.T.o + $   # ",
"O   0 & @ e g ] ] o.o.o.&.` 8.8.8.` B.> > > > > > > > > > > > > > > > > > > > > > > > > > > > o.o.o.&.&.o.] g g g j.3 o + $   # ",
"O N 0 & @ e ] b a X._ s._ T i i ' ' -X6 6 6 *.O.O.O.O.O.O.j.j.j.j.j.O.O.O.O.O.O.O.O.O.6 6 6 z.i _ _ &XE a b > A > nXy o + $   # ",
"O G 0 & @ e > 4.s.T i i ' ' 6.}.}.W.9Xn n n c W W W { W w.w.b.s b.s w.W { W W W W { C n n n 9XW.}.6._ E a ` b b P k.y o + $   # ",
"O G 0 & @ U ` s.T i T i i ' W.9XV C c C c c { s s s s @.( b.( b.( b.( w.s s s s s { c c C c C V 9X}._ X.E a a 4.X.C.M o + $   # ",
"O N 0 & @ U f.i i T i _ T cXC V V V %.n %.c c W s s s s w.( @.( @.( @.s s s s W W c c %.n %.V V V C z.`.&XE s._ i xXM o + $   # ",
"N % 0 & @ U f.' 6.i T _ =X{ p.V V V p.%.n %.W { W s s s s @.( @.( @.( w.s s W c W W %.n %.p.V V V p.{ z.T i T ' 0.^.M o + $   # ",
"2   0 & @ U f..XH.6.i zXq.b.{ p.V p.{ (.P.eXeXq.F F F F F v.F v.F v.F F F F F F q.eXeXP.(.{ p.V p.{ b.q.qX0.6.0.H.W.M o + $   # ",
"2 < 2.& @ U P T 6.a.0. X~ u ( { %.P.( f k ) ) ) ) ) ) ) / v v v v ) ) ) ) ) ) ) ) ) k f Y ( P.%.{ ( u ~ `.0.0.H.0.h.M o + $   # ",
"2 2 Z.& @ U ` _ .XH.0.`.8 ~ u v.v.f f r.> b a 4.f.f.a b I d d d d o.` a E &X&X&XE J.q S :Xf f v.v.u ~ 8 `.tXtXtXa.W.M o + $   # ",
"2 2 Z.& @ U &._ .XH.' J.4 8 / k ^ v !.&.B.P a P ` B.o.d d q q q q V.o.` 4.X.s.E E ` &.8.S !.v ^ k / 8 4 qXa.a.a.H.^.M o + $   # ",
"2 2 Z.& @ e &.T H.6.zXd.v / 8 9  . .&.SXL N.J #.K V.V.q *.'.>.N.h w -.&.` 4.E /.u.L J kXS F. . .9 8 / v d.W.a.H.0.^.M o + $   # ",
"2 2 Z.& @ e o.T ' z.(.c q.Y /  .t F.i.[ >...6 9.r.! d -.jXh j L #.9.,XS 8.P P J.+...L h u.F.t t  ./ Y q.c lX}.0.0.^.M o + $   # ",
"2 2 Z.& @ e ] E z.wXp.n c q.Y ^ !.i.j >.w +.r r ! : : c.>.j S.[ w >.J J kX&.b I 3.q u.h >.q yX4 ~ Y q.c n p.wXz.i xXM o + $   # ",
"< < 2.& @ e A !.d.C n V n c q.!. XN.>.w +.r 7 r r.: : J.J L [ i.6 w u.w 6 J.A r.3.4XS | h <.D !.:Xq.c n V n C vXY.h.M o + $   # ",
"% N 0 & @ e A Q u w.C %.V lX=X XW.j <.+.r 7 , r V.! : e...>.J w *.d I I e.A I S r 4X7 -.L [ <.D 9.q lXV %.C w.u q C.y o + $   # ",
"m G 0 & @ e A 3.k ( w.C wXz.X.`.N.[ w K 1 , , q K S e.] D L J ..w -.r.: : : c.6 q 4X, q '.[ L w /.a 9.wXC w.( k r.C.y o + $   # ",
"O G 0 & @ e A 3.v u ( @.d.8.s.`.j J 6 d 7 6X5 9.*.D +.c.D L h J i...6 c.r.: Y.#.rX4X1 q ..h j w &Xs.&.d.@.( u v V.C.M o + $   # ",
"O G 0 & @ e > I >Xf u v.DXXX/.f.[ <.-.1 , 6X5 d D | | i.Q.[ j j h L jXw *.c.kX#.d , 5 q w h j w f./.XXDXv.u f >Xf.h.M o + $   # ",
"O G 0 & @ e &.a e.U.f f p 8 XXe.[ ..K 1 7 7 , 5 -.u.>.j S.S.S.S.S.S.N.| D z.-X*.5 7 5 S #.h j w J.XX8 p f f bX8.i xXM o + $   # ",
"O G 0 & @ U b _ &XI U.z p 4 t !.[ | K 1 1 1 7 , 1 K | L S.j S.j j j L | D /.c.5 , 1 r 9.#.h j w yXt 4 p z bX8.i 6.^.M o + $   # ",
"O G 0 & @ U P ' ' X.R.9 t 8 t 7.[ | K 1 , 1 1 7 , 1 K <.j h h h h h Q.u.-.9.5 , , 5 q -.w h j w  .t 8 t 9 J.i 6.0.^.M o + $   # ",
"O G 0 & @ U f.6.tX' J.4 8 8  .7.[ | K 1 , , 1 5 1 , 1 6 >.Q.jXjXjXjX..D d , , , , 5 S +...h j w 7.8 8 4 4  X6.6.6.^.M o + $   # ",
"O N 0 & @ U f..Xa.tXzXu k z 9 7.h ..K 1 7 7 , , , , 5 *.J '.........D -.r , } } , r 9.*.| h j w 7.v f u v.z..X' i h.M o + $   # ",
"m H 2.& @ U ` ' a.tXcXb.u k z 7.i.u.K r r 5 7 7 , , 5 6 >.u.6 6 6 6 6 K r , } 7 7 5 9.6 | h j w 7.k u u @.=Xi i T C.M o + $   # ",
"% H 2.& @ e &.i a.}.{ F u u v 7.i.'.-.r 5 r d 5 , , 5 *.jX#.S S S S K 9.r , , 1 r 9.+.#.g.h [ w 7.Y u u F { -XT i h.M o + $   # ",
"% H 2.& @ e > T cX%.n { F Y U.q #.[ 6 r 5 5 5 5 1 , 5 *.i.*.d d d d S +.d 5 5 5 r -.D | J L J w q U.Y F { n %.-X' h.M o + $   # ",
"H < 2.& @ e o.E rXb.%.n d.U.d ] K N.#.d 7 1 5 1 Z : ! +.u.K 7 7 7 7 -.D +.r r d d +...jXh [ i.#.I d U.d.n %.b.+.' h.M o + $   # ",
"<   0 & @ U ` s.q u @.d.>X! S V.I '.i.q 7 1 1 Z : : I D | +.7 , , 7 6 | D S r 5 q #.'.J N.j | *.] ] d bXd.@.u Y.' h.M o + $   # ",
"% N 0 & @ U f.T c./ Y u 4 7.Q q ] #.h 6 r 7 7 g : : e.w Q.6 } } } } 6 <.#.q 5 5 d #.J L L J w 8.: =.>X4 u Y / c.i h.M o + $   # ",
"m G 0 & @ U f.i E A.z v 9 9 t Q V.K J | q 1 7 g : g V.u.J D } } } } | '.w q 5 5 r D L h N.u.*.A =.t 4 9 v z 3.&Xi C.M o + $   # ",
"O G 0 & @ U P i _ ` A.p 8 8 t p Q q w L 6 r ! : : g q <.J #.} } } } jXg.w S 5 5 5 6 [ [ g.6 9.=.p t 8 8 p 3.a _ T C.y o + $   # ",
"O G 0 & @ U b T ' _ P I Z } p R p Q K <.<.9.Z g : g +.>.L <.,X,X,X-.>.>.J c.Z ! Z D j Q.D 9.Q p R 4 7 I I a X.s.s.C.y o + $   # ",
"O G 0 & @ e o._ .XqX6 j.3.A.Q R z 4 Q K ..6 r g : Y.<.Q.L <.w K D w <.L Q.SXc.: g =XJ D rXQ 4 z R 3.3.5 j.6  XX.E k.y o + $   # ",
"O G 0 & @ e o.X.qX..C vXz ~ Q 9 k /  .F.+.*.q F.# ~.I.~.3X~.sX~.3X~.~.GX~.GXnXg : e.Y.e.5  ./ k 9 3.^ z vXC iX XE :.y o + $   # ",
"O G 0 & @ e > /.iXc n P.uXz R 9 ~ k 4 Q q q j.@X= +X$X$X$X$X$X{.$X{.VX;Xn.mXm.K.! : : g 6X4 k ~ 9 R z uXP.n c iX/.:.y o + $   # ",
"O N 0 & @ e A $.@.w.c (.FX9 4 p 8 ~ ^ 8 F.j.@XBXfX<X5X<X<XD.dX%X%XZXBX{.x n.mXM.N ! : Z p ^ ~ 8 p 4 9 FX(.c w.@.j.k.y o + $   # ",
"m % 0 & @ e ] Q Y u @.aXp Q =.=.p t 4  .F.iX1X{.fX<XfX$X5.8X~ f f 8XpXoXm.m.t.JX7XR.A g 8 4 t p =.=.;.p aX@.u Y yX:.y o + $   # ",
"%   0 & @ e g , R f Y f p g > : =.t p 7.r I G.1Xn.VX$X2Xk 9 *Xf v z f >XMXH l.y.1 > ` o.;.p t =.: : g p f Y f R ! :.y o + $   # ",
"% < 2.& @ e g B.5 p U.v / 8 g ] g t ;.F.I r.@ ].l I.D.8Xz E.p / ;.E.^ 9 M.K.l.y.R.P 4.P A ;.t Z g g 8 / v 9 p 7 b k.y o + $   # ",
"  B 2.& @ e ] a a b ! ;.;.t 4 4 4 4 Z V.q I G.].l I.dXf v ;.E.*XE.4 *X4 M.K.l.y.r.4.X.a b ! 4 4 4 4 t ;.;.Z > P _ h.M o + $   # ",
"< B 2.& @ e ] E T s.8.b b ] ;.t t  .t Z : r.@ ].l I.dXf k v *XE.;.v f f G.K.l.y.R.` 4.b Z t  .t t ;.g A A &.P a _ h.M o + $   # ",
"2 2 Z.& @ e > &X-Xp.d./ Q ` > ] t R 9  .Z : G.].l I.dX~ *X8 E.;.E.;.k z M.K.l.y.1 > B.Z  .9 R t g g : 7./ d.-.P 4.k.y o + $   # ",
"2 2 Z.& @ e > 6 V n q.u Y ) p p 9 z ^ 9  .Z G.].l I.D.8XR E.;.v p E./ R M.K.l.y.R.B.!  .9 ^ z 9 p p / Y u q.(.=XE :.y o + $   # ",
"2 2 Z.& @ e B.O.C %.%.F Y ^ 9 R v k z ^ 8 Z G.].l I.sX2Xf / k k *X~ R IXt.K.l.y.R.B.! 8 ^ z k v R 9 ^ Y F %.%.(.=Xk.y o + $   # ",
"2 2 Z.& @ e A :Xu F C P.4 Z , 9 ^ k k ^ 8 Z G.].x I.sXn.AX8Xf f z R MX% t.K.l.y.R.B.! 8 ^ k k ^ 9 yXF.U.P.C F u rXC.y o + $   # ",
"2 B 2.& @ e g I NXY aXuX .Q : Z , R ~ p } [.T.+XfX5X5X<X5X+X1X1Xn.).mXt.m.[.< y.l.! : 4Xp ~ R e.e.S NX8 uXaXY :X4.k.y o + $   # ",
"B B 2.& @ e : a 8.NXk 4  .8 =.4X: I r.I b M.2Xm._.5.CX_.%XhXhXhXhX2XM.[.M.2 B < % 1 A > I e.e.> 7 Q 8 t 4 k :Xf.E k.y o + $   # ",
"B H 2.& @ e ] a &X8.5 , 4 ~ ~ 9 =.` 4.4.nXOX#XI.3XD.3XHXD.#X#Xn.n.).oXoXt.m.[.H 7XG ! b a a b =.9 ~ ~ 4 1 r.8.E 4.:.y o + $   # ",
"< < 2.& @ e ] b P o.3.Q ^ z z v 4 b 4.X.|.2XoX#XAXgXgXD.%X@X_.).).).m.t.M.t.[.B < y.5 > b b A 4 v z / ^ Q 3.&.a P :.y o + $   # ",
"    0 & @ e ] > A Z A.A.A.7.R z A.b a :.CX_.~.gX%X@XgXD.%X@X_.).).).m.t.m.M.M.[.H 7XG ! A A A A.z R XXr r XXo.P P :.y o + $   # ",
"N N 0 & @ e g : : : : : : Z A.=.A A b @ pXAX+XZX3XZXD.D.D.#X#Xn.n.n.oXm.m.t.t.[.H 7Xl.3.: : : : 6X3.a X.E a P P P :.y o + $   # ",
"O G 0 & pX$.LX1.1.1.1.1.1.1.1.1.Y.1.Y.CXoXOXT.OX@ OXy T.T.@ @ - @ @ # # # |.|.|.|.|.# $.1.1.1.1.Y.:.k.k.k.:.:.:.:.PXy o + $   # ",
"O G 0 & T.M 3 3 3 3 3 3 3 3 3 3 3 3 3 5.3 3 5.5.5.5.5.5.5.5.5.5.5.5.3 3 3 3 3 3 5.3 3 3 3 3 3 3 3 3 3 3 3 3 3 3 3 3 T.o + $   # ",
"O G l @X- * * * * * * * * * * * * * * * * * * * * * * * * * * * * * * * * * * * * * * * * * * * * * * * * * * * * * * G.+ $   # ",
"O ,._.H X . X X . . X X X X X X X X X X X X X X . . X . . X X X X . X . . X X X X X X X . X . . X X X X X X X X X X X . X $   # ",
"O O % H O % . .   % X . . . . . . . . . . . . . ,.m +     . . . .   + O < O X . . . X O % $ % < . . . . . . . . . . X O % $   # ",
"O O N H   x.,.X 2 2 O O O m   O O O O < B 2 < % 2 H + H $.H   m % $.X O $.< O O O O m H x.$   $.  m B < ,.O O O O O m H x.$   # "
};
