/* XPM */
static char *Safeimagekit_resized_img1692973701[] = {
/* columns rows colors chars-per-pixel */
"32 32 223 2 ",
"   c #0F0607",
".  c #150C0C",
"X  c #1B0C0D",
"o  c #161010",
"O  c #1F1516",
"+  c #240D0B",
"@  c #2B0E0C",
"#  c #26100E",
"$  c #35100F",
"%  c #221313",
"&  c #2A1515",
"*  c #241819",
"=  c #311413",
"-  c #381918",
";  c #362224",
":  c #501611",
">  c #651B18",
",  c #632018",
"<  c #4C2925",
"1  c #492929",
"2  c #4D2D30",
"3  c #6E332E",
"4  c #7B3A40",
"5  c #7B5048",
"6  c #7E5455",
"7  c #9A2E2C",
"8  c #85332A",
"9  c #AC3933",
"0  c #CD1A0A",
"q  c #D31E10",
"w  c #C82C1D",
"e  c #D62112",
"r  c #DB2519",
"t  c #DE291B",
"y  c #E32916",
"u  c #E73F1A",
"i  c #CC2B21",
"p  c #DA2E29",
"a  c #DF352A",
"s  c #DB3C37",
"d  c #E22E21",
"f  c #E33828",
"g  c #E73C36",
"h  c #81443E",
"j  c #B34832",
"k  c #B45038",
"l  c #D64F2E",
"z  c #DA4839",
"x  c #DE5839",
"c  c #E4452D",
"v  c #E35623",
"b  c #E5433D",
"n  c #EC423B",
"m  c #E44D3C",
"M  c #EC4839",
"N  c #E55437",
"B  c #E45B3C",
"V  c #E4642A",
"C  c #E46638",
"Z  c #864B46",
"A  c #974D47",
"S  c #8D544B",
"D  c #93584D",
"F  c #8A5652",
"G  c #945C53",
"H  c #985A58",
"J  c #B34D4A",
"K  c #A75648",
"L  c #B65A4C",
"P  c #A95E53",
"I  c #B15353",
"U  c #8F625F",
"Y  c #9B6155",
"T  c #95615B",
"R  c #9D645C",
"E  c #BB6149",
"W  c #A26256",
"Q  c #A4655C",
"!  c #AC655B",
"~  c #A4695D",
"^  c #AC6A5F",
"/  c #B7665B",
"(  c #9B6A67",
")  c #9E7C7D",
"_  c #A36562",
"`  c #A56B62",
"'  c #AC6C64",
"]  c #A96A68",
"[  c #B56D68",
"{  c #AC7166",
"}  c #AC726C",
"|  c #B6756C",
" . c #AB6C71",
".. c #AD7872",
"X. c #B47A74",
"o. c #DC4546",
"O. c #CA554B",
"+. c #D95947",
"@. c #DB4D56",
"#. c #C75B56",
"$. c #DB5C57",
"%. c #E34C40",
"&. c #EA4B45",
"*. c #E34748",
"=. c #E94B4A",
"-. c #E65843",
";. c #E3534A",
":. c #EC534B",
">. c #E55D4A",
",. c #F15640",
"<. c #E44C54",
"1. c #E15254",
"2. c #E85553",
"3. c #E85A55",
"4. c #D5644A",
"5. c #C96359",
"6. c #DD635B",
"7. c #D9675A",
"8. c #D27355",
"9. c #E4694A",
"0. c #E2724C",
"q. c #E46254",
"w. c #E76559",
"e. c #E47859",
"r. c #DD4E60",
"t. c #E55766",
"y. c #E35B62",
"u. c #E35F74",
"i. c #C86A64",
"p. c #DC6662",
"a. c #DB6B63",
"s. c #DB6769",
"d. c #C9746D",
"f. c #D4796E",
"g. c #C67A76",
"h. c #D77A77",
"j. c #E56464",
"k. c #E66868",
"l. c #F36768",
"z. c #E87669",
"x. c #F0776A",
"c. c #E36373",
"v. c #E56E76",
"b. c #F46D72",
"n. c #F96C72",
"m. c #E57573",
"M. c #E87877",
"N. c #F77578",
"B. c #F4757B",
"V. c #F67A7E",
"C. c #BE857A",
"Z. c #DB875C",
"A. c #DC8867",
"S. c #C5847C",
"D. c #D88A78",
"F. c #E7886C",
"G. c #EA906E",
"H. c #EE8D74",
"J. c #E68878",
"K. c #F2837B",
"L. c #E5987A",
"P. c #BD7F80",
"I. c #E87C84",
"U. c #F57A83",
"Y. c #F57C84",
"T. c #BB8886",
"R. c #B38F93",
"E. c #B78D94",
"W. c #BA9DA7",
"Q. c #B9A5B8",
"!. c #C38582",
"~. c #C98786",
"^. c #C48B84",
"/. c #CB8D8B",
"(. c #DB8587",
"). c #C7918B",
"_. c #DB9985",
"`. c #D2938C",
"'. c #C48C96",
"]. c #DB8F98",
"[. c #CC9696",
"{. c #D39494",
"}. c #D69A97",
"|. c #DC9A95",
" X c #E58889",
".X c #F48482",
"XX c #F58486",
"oX c #F48A84",
"OX c #E69488",
"+X c #ED928A",
"@X c #E39C8E",
"#X c #F19586",
"$X c #E58A95",
"%X c #F38A97",
"&X c #E69998",
"*X c #F39695",
"=X c #DBA19C",
"-X c #ECA496",
";X c #C395A2",
":X c #CC9AA0",
">X c #D49FA6",
",X c #EB9BA8",
"<X c #CAA4A9",
"1X c #DCA3A2",
"2X c #DBA8AA",
"3X c #D6ACB8",
"4X c #E5A8A4",
"5X c #E8B0AD",
"6X c #E8B5B2",
"7X c #BEAFC2",
"8X c #BEB3C5",
"9X c #CABACC",
"0X c #D7B7C9",
"qX c #C7B9D0",
"wX c #CABDD1",
"eX c #D1BED2",
"rX c #CDC2D6",
"tX c #CEC4DA",
"yX c #D1C3D6",
"uX c #D2C6DA",
"iX c #D4C9DE",
"pX c #D6CBE1",
"aX c #D8CCE1",
/* pixels */
"&.J.6XM.F.L.#X#X#X#X6X-XL._.O.z z l B ,.x.-X+XB.%Xb.-XY.n.N.n.B.",
"b w.4X+XM.H.L.#XoX*XW.) 5 % # & & , 8 9 x.+XK.l.n.V.4X%XV.N.N.B.",
"b 3.M.x.H.H.K.oXK.d.2 X . . . ; - & # $ J f.B.n.U.B.*XY..XoXB.Y.",
"n :.l.w.K.H.K.K.F.h % . X o . ; % # = + - Z +Xn.%Xn.oXXXY.oXV.%X",
"g w.4X$Xx.H.H.x.3 % X O * O o .   % # @ X $ I U.%Xn.N.U.XXoXXX%X",
"g 3.-X.Xw.G.G.F.& % . * O * O O . * % @ = @ 7 I.%XY.*XU.N.oX-X4X",
"g &.j.:.w.x.#X^ # % * - < < - - < 1 + # $ + , v.%XB.*XB.N.+X#XK.",
"f =.M.:.,.z.5Xg.. < G S.T.).| C.| ' J 3 + + > 3.U.l.N.l.n.L.K.k.",
"f 3.|.:.m w.L.E # S { -X1X2X|.`.}.g.5.5.3 : 7 I.,Xl.+Xl.l.4XM.k.",
"i O.~.O.z +.4.4.3 ~ X.=X2X1X=X{.{.S.[ a.I 8 9 s.h.s.`.p.y.[.D.[.",
"p +.s.%.B 9.m >.~._ C.[.2X=X1X`.F 5 H s.p.$.3.c. Xz.OXD.2.j.p.h.",
"d 2.$Xj.N 9.M M H ` T.^.F C.{.Q T X...i.a.#.I 3.v.m.@Xz.=.:.=.v.",
"y 3.&X Xq.9.B M _ P H 2 Z ] !.F T.% Z g.6.f.#.t.v.z.&X2.=.k.n &.",
"t m h.6XJ.L.#Xe.' ' }  .] !.{.Q T ] X.d.7.i.i.g g w.I.n =.v.g j.",
"t c N =XB @X@XZ.S.' `.{.'.~.`.! S.~.`.h.7.d.3.<.2.l. X&.*.v.>.e.",
"r m J.@XB 2XA.C OX} S./.| /.&XH  .G S.5.5.M.k.2.t.3.L.w.c z.w.A.",
"e m ].=X_.=X@X0._.8.W ! ~.P..._ R H F P #.l.2.<.c.w. X9.g j.c Z.",
"e b z.-.0.C F.e.}.4.K _  .'.>XE.4 F P L j.m.&.=.t.;.D.%.n j.c A.",
"e m a.N v V C 9. X-.J { P.'.].).[ | P L j.m.3.<.c.;.I.g g p.x Z.",
"e +.(.k.u V 9.c M.B k F X.~.~.).g.' A ! 7.M.<.<.u.@.].a f 3.c z ",
"q z J.c.c N f.m $X3.j T ( ).}.S. .A H ! 7. Xj.<.r.a g r f $.y <.",
"q f +.6.=Xk.9.N (.:.j ' U ( ( U ( H R ' 5.m.=.*.r.a t.p g c.y o.",
"0 f w.$.|.F.N v <Xg.Q } R U U Y H _ Q Q 5.O.i.@.r.o.I.p d 1.y p ",
"0 s I.s.f.F.0.$.Q.R.H ` C.~ G { G H Q ' / L h ;X'.m.@.r f q.v 7.",
"0 s k.s.D._.W.8XrXW.( Y ~ ~ G S D R R R { / F Q.Q.7X>Xs *.D.v p.",
"0 l $.g.:XwXwXpXtXrXR.C.~ ~ D S Y R ~ ( { X.W.rXqX9XqXqXs.A.l o.",
"0 o.[.8XwXyXtXpXiXrXR.C.C.Y Y S Y ` { C.C.} W.tXyXwXwXyXeX>Xz @.",
"w 3X8XtXwXiXpXpXiXiX9XR.C.Y C.Y W C.C.^.C.W.rXiXtXwXyXuXuX9X3X&X",
"8XrXuXtXuXuXpXaXpXpXpXiX<X).C.C.C.S.).).'.pXpXpXeXpXiXiXeXtXeX0X",
"rXrXrXtXuXuXiXaXpXpXpXpXyXyX2X<XT.:X<X3XpXpXpXpXpXiXyXiXuXeXeX0X",
"rXrXuXiXrXiXaXiXpXpXiXiXuXuXrXrXrXrXtXiXtXiXpXpXpXrXwXpXtXpXeXeX",
"iXuXuXuX9XaXaXaXiXiXuXiXuXuXrXrXrXtXiXuXtXiXpXtXiXtXtXpXtXwXtXaX"
};
