/* XPM */
static char *result[] = {
/* columns rows colors chars-per-pixel */
"64 64 6 1 ",
"  c #271F0B",
". c #2F240E",
"X c #382A13",
"o c #413116",
"O c #473718",
"+ c #543B1D",
/* pixels */
"                                                                ",
"  XoOOOXoo X+X    oO.X.XX  XO .+O.o.OX oO.  .X.+. +.o. XXXX.Oo.+",
"  oOOOo.oO X+X    oO.X.XX  X+ .+O.o.+X o+o..Xo.+. +.oX XXXo.Oo.+",
"  XOOOX oO X+o    OO.X.XX  X+ .+o.o.+X o+OoXOo.+. +.oX XXXo.Oo.+",
"  .oOOX oO X+o   .OO.X.XX  X+ .+o.o.+X o+OOOOO.+. +.oX XXXo.Oo.+",
"X  XOo. oO X+O.  XOo.X.XX  X+ .+o.o.+X o+OOOOo.+. +.oX XX.o.Oo.+",
"o. .XX  oO X+OX .oOo.X.XX  X+ .+o.o.+X o+OOOOo.+. +.oX XXXo.oo.+",
"o.  .   oO X+Oo.oOOX.X.XX  X+ .+X o.+X o+OOOOo.+. +.oX XXXo.oo.+",
"O.      oO X+OOoOOOX X.XX  X+ .+X o.+X o+OOOOO.+. +.oX XXXo.oo.+",
"OX    ..oO X+OOoOOO. X.XX  X+ .+..O.+X o+OOOOo.+. +.oX XX.o Xo.+",
"oO.   oXoO X+OOoOOO. X.XX  X+ .+.XO.+X o+oOOOo.+. +.oX XXXo .o.+",
"oOX  .oXoO X+OOOOOo. X.XX  X+ .+.XO.+X o+oOOOX.+. +.oX XXXo .o.+",
"XOOX oOXoO X+OOOOOo. X.XX  X+ .+.OO.+X oOXOOOX.+. +.oX XXXo .o.+",
" oOO.oo.oO X+oOOOOo. X.XX  X+ .+XOO.+X Oo.oOoX.+. +.oX XX.o .o.+",
" oOOoOX oO X+oOOOOX. X.XX  X+ .+oOo.+X Oo.XoX .+. +.oX XXXO..o.+",
" oOOOOX oO X+XOOOOX. X.XX  X+ .+OOo.+X OO .X  .+. +.oX XXXoX.o.+",
" XoOOOX oO X+XOOOO.  X.XX  X+ .+OOX +X Oo     .+. +.oX XXXOX.X.+",
"  oOOo. oO X+.oOOO.  X.XX  X+ .+OoX +X OO     .+. +.oX XXXOX.X.+",
"  XOOX  oO X+.oOOo.  X.XX  X+ .+Oo. +X Oo     .+. +.oX XXXOX.X.+",
"  .oO.  oO X+.XOOo.  X.XX  X+ .+OX. +X oO.  ...+. +.oX XXXOo.X.+",
"   XX.  oO X+ XOOX. .o.XX  X+ .+o.  +X o+X. XX.+. +.oX XX.Oo ..+",
"   .    oO X+ .ooX. Xo.XX  X+ .+o   +X o+oXXoo.+. +.oX XX.Oo  .+",
"        oO X+  XX.  XX.XX  X+ .+.   +X o+OooOo.+. +.oX XX.oo  .+",
"X     ..oO X+  ..   XX XX  X+ .+.   +X o+OOOOo.+. +.oX XX.oo. .+",
"o.    X.oO X+       X. XX  X+ .+.   +X o+OOOOO.+. +.oX XX.XOX .+",
"o.    X.oO X+       o. XX  X+ .+.   +X o+OOOOo.+. +.oX XX .OX .+",
"o     ..oO X+  .   .oX XX  X+ .+. . +X o+OOOOo.+. +.oX XX .OX .+",
"X.   .. oO X+      XO. XX  X+ .+. X.+X o+oOOOo.+. +.oX XX .Oo..+",
" o.  X. oO X+      XO. XX  X+ .+. X.+X o+oOOOo.+. +.oX Xo .OOX.+",
" X.  X. oO X+    . XO. XX  X+ .+. o.+X oOoOOOX.+. +.oX XX .OOX.+",
" X. XX. oO X+  .   oO. XX  X+ .+.XO.+X oOXoOOX.+. +.oX XX .oOX.+",
"  X.X.  oO X+X     oo. XX  X+ .+.oO.+X Oo.oOOX.+. +.oX XX .oOo.+",
"  o.X.  oO X+o    XOo. XX  X+ .+XOO.+X Oo.oOX .+. +.oX Xo .oOo.+",
"  XoX.  oO X+OX   XOo..oX  X+ .+oOO.+X OO .oX .+. +.oX XX .oOo.+",
"   X.   oO X+Oo   oO. .oX  X+ .+OOO.+X Oo .X  .+. +.oX Xo  .Oo.+",
"   .    oO X+OOX XOO. .oX  X+ .+OOo.+X OO     .+. +.oX XX  .Oo.+",
"        oO X+OOoXoOO. XoX  X+ .+OOo.+X Oo     .+. +.oX Xo. .Oo.+",
"        oO X+OOOOOOO. XoX  X+ .+OOo.+X Oo     .+. +.oX Xo. .Oo.+",
"        oO X+OOOOOOo. XOX  X+ .+OOX +X oO.    .+. +.oX XOX .oo.+",
"      . oO X+oOOOOOo. oOX  X+ .+Oo. +X o+.    .+. +.oX XoX .oo.+",
".     X.oO X+oOOOOOX  oO.  X+ .+Oo. +X o+X.  ..+. +.oX XoX .oo.+",
"o.    X.oO X+XOOOOO.  oo.  X+ .+OX  +X o+o. .X.+. +.oX .Oo  Xo.+",
"o.   .X.oO X+.OOOOO.  oo.  X+ .+oX  +X o+oX.XX.+. +.oX .oo  .X.+",
"oX.  Xo.oO X+.oOOOo.  oX   X+ .+o   +X o+OoXoo.+. +.oX .oo  .X.+",
"oo.  XX.oO X+ XOOOX  XOX   X+ .+X   +X o+OoXOo.+. +.oX  Xo  .X.+",
"XoX.Xo. oO X+  oOo.  XOX   X+ .+.   +X o+OOoOo.+. +.oX  Xo. .X.+",
" ooXoo. oO X+   XX   XOX   X+ .+.   +X o+OOOOo.+. +.oX  XOX   .+",
" ooXoo. oO X+    .   oO.   X+ .+.   +X o+OOOOo.+. +.oX  XOX   .+",
" oOOOo. oO X+  .     oO.   X+ .+. X +X o+OOOOo.+. +.oX  XOX   .+",
" XOOOO. oO X+       .oo.   X+ .+. X.+X o+oOOOX.+. +.oX  XOo.  .+",
" .oOOo. oO X+X     .XOo.   X+ .+.XO.+X o+oOOOX.+. +.oX  .OoX  .+",
"  XOOo. oO X+X      XOX    X+ .+.XO.+X oOoOOOX.+. +.oX  .oOX  .+",
"  XOOo. oO X+o  .   oO.    X+ .+XOO.+X oOoOOo..+. +.oX  .oOo. .+",
"  .ooX  oO X+O.    .oO. .. X+ .+OOO.+X oOXOOX .+. +.oX   XOoX .+",
"   Xo.  oO X+oX    XOo. .. X+ .+OOO.+X Oo.oOX .+. +.oX   .oOX .+",
"   XX.  oO X+oo    XOX  .X X+ .+OOO.+X Oo.oo. .+. +.oX   .oOX .+",
"   ...  oO X+oO.   oO.  XX X+ .+OOO.+X Oo XX  .+. +.o.   .XOo .+",
" .      oO X+XOo. .OO.  XX X+ .+OOO.+X OO ..  .+. +.oX    .oO..+",
"        oO X+.oOoXOOo.  XX X+ .+OOO.+X Oo     .+. +.Xo.   .oOo.+",
".  .  . oO X+ XOOOOOX.  Xo X+ .+OOo.+X OO     .+. +.Xo.   .XOX.+",
"X     X.oO X+ .OOOOo.  .oo X+ .+OOo.+X Oo     .+. +.Xo.    .oX.+",
"X.    X.oO X+  XoOoX.  XOX X+ .+OoX +X OO     .+. +..oX    .XX.+",
"o.    X.oO X+   XoX.   XOo X+ .+OoX +X Oo     .+. +X oX       .+",
"oX    X.oO X+    X.   XOOo.X+ .+oX. +X OO     .+. +o.oo.      .+"
};
