/* XPM */
static char *result[] = {
/* columns rows colors chars-per-pixel */
"64 64 17 1 ",
"  c #474D33",
". c #373D24",
"X c #64694D",
"o c #40452C",
"O c #5E6347",
"+ c #50553A",
"@ c #43492F",
"# c #54593E",
"$ c #585E42",
"% c #4C5137",
"& c #3C4028",
"* c #2D301A",
"= c #6B6F53",
"- c #333720",
"; c #242914",
": c #151A09",
"> c #74765B",
/* pixels */
"=$&.&-**@+..&-&XX@&.&-.$O &.&-;o;:*.&-*@#&..&-;  *-.&--%o--.&--+",
"+. $O#.*-. $O#.o#. $O#.. - $O#&**- $O#.--- $O#.-&- $O#&-.- $O#.-",
"o.@+$ &-..@+$ &-..@+$ &-..@+$ &--.@+$ &-&.@+$ &-*.@+$ &-..@+$ &-",
"o-..&...&-..&... -..&...o-..&...@-..&...@-..&...o-..&..-.-..&..-",
"..o**.@*..o**.@-@.o**.@*-.o**.@*..o**.@*-.o**.@*-.o**.@;;.o**.@*",
"&.-...&.........o.-...&-..-...&.......&*;.-....-*.-...&-;.-....-",
"o*:;.::&&*:;.::&@*:;.::..*:;.::&@*:;.::..*:;.::..*:;.::&o*:;.::.",
"+ *;:;.%  *;:;.++ *;:;. o *;:;.%  *;:;.%@ *;:;.%% *;:;.%% *;:;.%",
"O&:;*;;+$&:;*;;+O&:;*;; %&:;*;; @&:;*;;%#&:;*;;%+.:;*;; %&:;*;;%",
"=O:;*:.==O:;*:.X=$:;*:- $$:;*:.$##:;*:.O$%:;*:.O$#:;*:.$%#:;*:.O",
"XX@%#o ==$&%#@@O=X%# -oo+O%$X  ##O%+#@o@+  %#@ #$O#=X %#%#  +&o%",
"&oo+# %+%--%+%@ %+++.*&oo +OX$++#$$$#@&&@      oo $=X$#%&&@@o-**",
"-o  @@ @.--&o@% @ @.*-@ @@@%+%   %#+@..@@@@o@oo&..&o@@o&o@@o.-**",
"%X=X@@+&**&&o## +X@*;-%O#%+O==XX$O==O$O##XX$$+oo@&.+# && +% ..&*",
"%=X$#%-*o----&-.++*:.#-.% @+OX$X+#X=O$O#  $#+&.&&oo&&&o&&@..&&*;",
"o$++OOo-+@o%X - O .* #-*@% +$O$$#$OO$%%$Oo. %*&o  %.- +o&@*.-&-*",
"&##OX#.;++#=X++$O+.%O% &&  +#$X#+OO$$%%#X#&o *&  %%o&  @  @ &.-&",
" #$X$&.-%XXOO#$O$%@##+%# @@+ #O##O$$X#+$$+ %@.+$###%+$%$O#+%o*;.",
"##$O$##+O>X$O$OO$% %#+%O#@o%%$#$$XOOX$+$+#+ + +$##+ +# #XXO#+&;-",
"+#$O%# $X>>OOOXO$+ @+$+$$#o.o++##OXOO@ + $#o%+## o  %#$%O=X$# --",
"@ O=$ +#O>>O+#$$OO#% + #OO -*-.&&%+%@-&#+$#..&o&-oXXOO=$#XOO+%o&",
"@#=XO$#$#=>=$% %#XXO@o%OOO+.*.*-@O$ ..%XO+%*;*o++ X==X=O%#OO%#% ",
"#OXOO$O=+X>=$+%+$XX+@o$OO+ &;o%  $$+++#X$ @*;@#XX+ X=XO%-o$% +%%",
"%$$O$$O=#O>=++OX$$+  o#$#%##--+O#$+ +XX$%& % ##$#+ $$# ..-@. @& ",
"&@%#@+OXO+OO+O=>==O+@-.#OO$# @ %+$$  ==X#&%#@  +++#XO++# -.&@o..",
";* %+##=X$%o+OX>>>=#-*.@ #O###+  #+++$##XO+-.%+#%%$OO$$=#-&o&.;;",
":;*.%+%OO+o. #O=>X$ &&%+%#O$XX#% +#++% @X=$&.+#$@&$OO$$=%*&@ o-;",
":::;&%+#% %@oOO=>Xo o ++##XXO$$#  #  o-&$=X#+$$O%o$XOO$O%- +%@&*",
"-*;;&# %+#X$%#$OO%...+$$##XO+%++  +  .*o#O#%$O###+$XX$O$ &+$$O o",
"o%- -- +%%O%-o &&...o%%$#$O$OX#o@+#@*** $  &@#$+%%$XX$OX  #$$$+@",
" %o$@-%+@ +-;-o +#+%#%%O$OO+OOO@.+#o;*.#$-&+##+&o%$OO$OX@ OXX$ o",
"###$#@#%@ .-&%$XX=$$O##@ $O #$##o +&:-o$+*.+OO%.-.@$$OX#  OXXO@.",
" #$O# +# -*- $OXXXOXXOX%@%%@ #$O# +o*o%$+*&+X>$&*;- #$X#%o+==$# ",
"#$$OOOXO -&&. $XXOO=XXX$$#+% $XO$%%..%#$o*o$X=O@***o%$=+@$O=>X+%",
"XXXXXO$+%%$ @ #OXXX=O@$#O=XO#==XO@--  ## .%O#$O%-;*@OXX+o$OX==$$",
"O=X$XX&o#O=XOX>OXXXO%+=$$==O#O==$o-&@%+ @O=#@    @&-@#X%%$###O#$",
"$$++=%-@X==>>XX$>>>$ $O#X=>=X%#+@o@++%+@+=X+o %o +@**@#+++%%+$OO",
"#+#O=oo%===>>>$ $X=%o %#=>=>X% $ &@+##+ $=O+@ +ooo---  %+++$$##=",
"##$X=@-@#X==>>XXXO+ @ %O==>==O$$+%%%+# +O>=+ +% %--@ #@%#$#X$+#$",
"##$OXoo&&$X=>=XXOX+ @ +X====>X$$$$$$+o.$X==#+O%  o% $#++++%+% %%",
"+#$O$& @o#O>XO$O%# + @%XX==X##=X==O$@*.#O#O$ #+ @ %#O+%$X$ @ +% ",
"  O=>$@+X= O=#+= o# + %XXXX#*oXX==X#&* XO%@% %$++#%%$%%OO+  OOO#",
"%#=X>X+O$X#%+@ O-&#+% %$OXX%-oOXXXO@-&O==$&@+#$OO$$%+ #++$%%OOXO",
"#OXO=X#O#$O%**&$@+++ +%#OOO%&@#$+ @..%XX=O+@+O+$OOO$% ++#$#+OOOO",
"###OXO###OO *** +##+%  +%%%o-&%+ -o.* =X=OX+%$%$XOXX%&%$XO#$$+++",
"+++$OX###O%.&.&@@%## ooo-o&.;*@o&&@-;*$=O$= &+#+=>>=#+XOX#%XO @ ",
"++ +##  +#&-ooo%@o#$$%@&-..&*.o-&o@*;*%#%OX.&#=$=>>>#=>>=%%X @%@",
"$#o $#+#% --@%%+ %O$$#    ..-@@&& +**-%#$=O. $>X=>>#+>>=O@&%  ++",
"$#@+OXO#+$.@$$X$$$OOOO$###&;*@%o- +-.o+#O=O-&%OX=>O&$=>O%@@ %@++",
"##%#O=O%$O@ $#X=XO$X=XXOO#o;;&  @%o . ##OX$.@- XXO&.#OX#@@#@ +%+",
"@@%#OO@.##@#OOX>=OOX=X==X#@.-& %&o..o+##OO+.%&%OO o$O#++%++ $X o",
"&-o%%%@.   #XX=>>XX=X===X+% & %+o-o&#%@+==>o%#>+@$==>O&++%+@#$+o",
"@-*-@+#%%  #X=>>>>=XXX=X$$#% %+$$&oo+@%X=X>++OO -$>=>#-%#%%+XO+%",
"o&-*. #%&o#$==>>>==XXOO##O$++$$O$% -o%$XXX=$+$ &- O=>$+$++$X=O#$",
"+ @@%+#%@+OOOX>>XOX=$+#$OX=XOX=XX%@o@+#$X==$  %&*-%OXXO$##$O$$OX",
"$  %##$+o@#O#X>=$$#O$+%#O=>X#OX=X%&o@ %%O>>=###&-- $X=X#+#+ +$O=",
"%oo@@@ &.& % +$#%%@@ o&o #$+#+%+ &&&oooo OO#o& &-- +%++ oo&&@  $",
" oo@@@@ @@  %## @%@@@oo@%+++%  %%o&o@@@o@#$%o&@..&o+% @o&&     +",
"X###$%#O#$OX=>=O$$+#$% $X==X#OOXX$%##$X$X=>X+%# &@ $O+ ++%$XOOO>",
"&&.-..&..oo&o o.&&...o..o  o& oo@@&.&oooo @..o&-*..-.&...&&&ooo@",
"o+ -&+ -&+ -&+ -&+ -&+ -&+ -&+ -&+ -&+ -&+ -&+ -o+ -&+ -&+ -&+%-",
"%%+o%%+o%%+o%%+o%%+o%%+o%%+o%%+o%%+o%%+o%%+o%%+o%%+o%%+o%%+o%%+@",
"@ @@@ @@@ @@@ @@@ @@@ @@@ @@@ @@@ @@@ @@@ @@@ @@@ @@@ @@@ @@@ @@",
"*o.;*o.;*o.;*o.;*o.;*o.;*o.;*o.;*o.;*o.;*o.;*o.;*o.;*o.;*o.;*o.;"
};
