/* XPM */
static char *result[] = {
/* columns rows colors chars-per-pixel */
"60 60 72 1 ",
"  c #53583D",
". c #565B40",
"X c #40442C",
"o c #5F6549",
"O c #474A32",
"+ c #410503",
"@ c #43492F",
"# c #595F43",
"$ c #50553A",
"% c #4C5137",
"& c #5C6146",
"* c #343420",
"= c #63674C",
"- c #3B3F27",
"; c #50513A",
": c #494F34",
"> c #363A23",
", c #696D51",
"< c #2E341C",
"1 c #440C08",
"2 c #393625",
"3 c #46442F",
"4 c #676A4E",
"5 c #2F2E1F",
"6 c #6F6F54",
"7 c #2A2C16",
"8 c #2F1F0F",
"9 c #524D37",
"0 c #5F5E45",
"q c #3F3D2A",
"w c #262314",
"e c #443523",
"r c #7F735B",
"t c #737459",
"y c #1F1A0F",
"u c #796E56",
"i c #59533C",
"p c #473D29",
"a c #4B4B35",
"s c #5B5941",
"d c #94836A",
"f c #3C2F1D",
"g c #312917",
"h c #342312",
"j c #4F4732",
"k c #837A60",
"l c #646149",
"z c #6F684F",
"x c #A08A72",
"c c #43170F",
"v c #3C2918",
"b c #4F402C",
"n c #74583D",
"m c #8B7860",
"M c #4A291C",
"N c #6B614A",
"B c #452015",
"V c #7A795E",
"C c #5E4C36",
"Z c #8A7E64",
"A c #917B62",
"S c #38150B",
"D c #A89179",
"F c #150F08",
"G c #4F3626",
"H c #7B644D",
"J c #2B1A0C",
"K c #66523C",
"L c #645A42",
"P c #88725A",
"I c #58422F",
"U c #846B52",
/* pixels */
"1ejOqX@q$%.#.#0.% . . $::%:OXOqq22:@3OOX;:%-@:XX%@$$$#s.@eMB",
"++1M22-2OO=t6t,=&o,o=4s :$O*2**5yy>yy--*qX 22:O2 :#:%o0bc++S",
"S+c+SfXOO:$o,6#:@%&o,4$ %-*wwOaX557F*. ;352 -q*5X%@>:Xc+cS+g",
"hShhcSgqaO@a0,ooX@ %o$O%.O<yw-.%X*X%%;#,$q3#%3*77*7<fhSMpS8w",
"788fpevvbLNszuNs0=6$:-#=6Na5Jeeh23s6,oO%$3qa;9Os$siGveppf8v8",
"<ghe99jeeCrrzrrurkLO-;s9bGefh1+SveGbjssa$3LruukuzuCbKCijvf*7",
"**ghpOiLCICul4zuZZ3Xqbevepj%qbjp39pevebpX3Lxtu60LIKNNi9evf5w",
"*><hg-O: NCCUZmk4=9bpjj;&ol#;s&.%4&o 9jbpjs=tkunKKu&%:-8f><7",
"*f7ghqX@&,&aICuZzKI904,4664s,,=60o,t,,4=iICLrUCC; 6=$X2877<7",
"-X*<hf*>#===,9binnz=ttVVr6=4o46o4=,rrVVt,,znCIi4,oo=O7h5>7<w",
"<>><gh>-$;O$:.CKnuVtVrrrV4=,,6u,,,otkrrrVtHnNK&%$%a.@g8<<7wy",
">X*77Jh>:&.;peNuHnNPmAmk,#6tVAAktt=&rkAmPNnukuIeO &.-8h77wwy",
"@#O>78Jg33%$p9zmmHnnUAZ,o,rZdxxxZk6==kAUnnUmmuLGj$@OfJ8g775y",
"X,= q78gq2>be urrmAPnKo4uPmdDxDxxAmr,=CnUAZruksjf3<eh8gg*-*y",
"5.;.#$gJgqfvq3ulrddxHpCNrmdDxDDxDxAPzCjidxAd4ziphhqf82>*2-2w",
"5$.=#;w+S*hjOpqsdAxms.NKnmxDxDDDxDAnKN=$zxddu3q3jvgSvO@O@>*7",
"2$#4;X>S+Sh-;%arddDl$oVunnAxDDDDxPnnHk,#;ZxZd0O.XgS19& %@*w7",
"- &&#. b+1e*$$4kkAkO&4tkPHnUxDDxUnPPZt6=%ldmrV  X8+1C,o# @ww",
">%&&;a%G+1p-i .&Nks%&4uZuxUHHAmHPmxZuZz= ;6k.o%03h++B44&.%-7",
"5:44.%;c1+B*la*OzlN64;d0dxmAHHHUxAxd.dzs6ziuiX56q+MG+Ioo $O<",
">&,oo.b+GM12aaX;&6ZkrdZaDdPPHPPnUuxHudZu66930qq0f1ii1B.&% %>",
"X&oo&#M+9L1hX@O;#VZAtdx6xmnHAxxUnKkkxrrZ&apz o  SM&aS19@X:@>",
"*;$.%;c1;4GSO2j% V,ttZdAUHHuddZmNHnUArrt=Oe6N= 3Sb%@v+f>OO@<",
"w-%$:b+M.$382>9.0:  0PmnnAxdmzNrdAHKnAr:@:po9><JMs.li1S--@ *",
"y7-@ M+j&%<yJ*% rO<wwbnn=dDDr6zrxmzrHKpy*2X=a>wS9& =4c1qOO%>",
"Fyy5@B+b:O-wS8$lN2>5ee0k00ZmlzzzZzsk6eef2*qaXp+M0o&&oB13%@%>",
"ywywq11a$&o@vJ@o.wje9o$6=2=&.;aot;O4:X4fC5a32M19No0& f+p.#:>",
"5@*Xg+B;%. 75hgube9k;l2%%733X25%#52:5.00rfI2w8vs4=#4.f+G#&$*",
"5O3.2+B:@;>wajhIbiO6u3w57*pww5y7**wg53LV03pf8h>#o&&= f+G=&:<",
"-$.&j1c@:-7-#9hG9.O603353;iq5a2p@O25a0 0;O6i8h*:&&oo%e+G4=O7",
"- &o91B%-gw*beeesl9zut-5;ok0-=3zVli2%rkOXjd9hbfhj.&o:G+I60$>",
"X#&os1B -*8JG0#epj lZd**gidr@o@kk&534zxm.urv9t5S1e&=@e+It,;>",
"@4,o0cc%qc+BqsO2ea06Lsi3w3md0zsdxa2sX VdrVpvkl7gS+M9@f+G=6#-",
"-=&.,M+c+cj=>7-2fbis3*z$2qkx64zDZOOr5ssl.lffN*@-gv11ev+p$& -",
"5 ;&,B+1G0tV#*@Ofpq0;9s.a*6dr4VDz3%;O;%l.pv->*%-7*3B++1j .#@",
"5$# G1+M=,tVVl%*qvga2j0;0y0Ar4dd&qu;;X2;$pf%@@>*--:@M++Ms $X",
">;bc+h+B.4,Vt=o<qg8w>3#=0F2rulxk5wV#O5g52e>:@:-X:. %p+11cp$-",
"*B+ce*c13.,4o&.*;58yww k0FF9m9x;yyr,*5w78e>@:O@%$.%$M+pe1+B<",
"+++1Bc1+cBMBBBBgfg8JFFpzNyygbgKfyvHi8gJ88g8cccccBBBB1+ccc+++",
"1111111++11111Shvv8yFFgKHf8veybh8bNeJFyJhfhS+111111++1111111",
"-i0sNs9M+I9>*><..O*Fyg7ldi5q;w02>zt-2FF8i=j2*iii93jB1j9jiiiq",
"-#&o40 91M *g7Xt4X2Fyf7sk023ag0-Ok453yFw0u#%-ooo&@2+Go#.## -",
"-$i#ol$#G+v->59k0.wFFJ29skj-%qsqui;@-yF244=:-46t,O1c0o;&=:@<",
"-%: . O$%B1qX>@tzl*FFFj33r4%.alz6l03yFFattsOX6VV4M1KVsO& X:<",
"X%X%s$$$:q+BaOXXz6$y5yv5g.&&4%,slsX5wwwok=-%o6VtI1It,9X::O$>",
"X;@.N=#%&Xf1Ml%<3d=qlwef*22a=*&Xi5-aeC2tdq7.4,tC1G,6$:XO%@%>",
">;;.l,$$oaOe+G=$7u69ryfpiajaa5;292s2juqkkw*Oo,icc oo:@$%O.:>",
"<Xa.& >@#@$#M+G=XjmzZ<wgCj6u6 Vil338NZOd9>X$#C1cs=;;%$%%;4:7",
"7*XOO$XX:O 4lI1Mb3da6q7pv*4k6,Vl92qgz;ld2O.zG1MLtt:q %$@$0$<",
"<*7*O  %@a%=66Lc1bd2;05g8paLi$la938p33dmX%iM+h 6t6X@$$% ==;>",
"<-->X% XX 0=,ttlMvp2-392yfsrNNrNiwJqqi6m9Gccv>@&,,#&  .==o.X",
">@@:  .:: o#=tto-3vhJ2a9qv2ai9iq2882-3qKc1B9p55:044&  .  #03",
"-a%; . @X$& ot,&@7qyJ88f238-2@-iphw7f888BpO.X>q &l4o$%%O$##@",
"-O%    $%.o&,to&=X*yw5e8888Gpbebhh8Jh8y*#%@ X*X.,lo.:X%.#&&@",
">%$.$%&#$#o,tto.&$:2y3tq*pe8hvvhhhgKiwX66$O;X>XO=&%O:X lo&&@",
"-$%: :##.o44,=&#;; $7*4z>3ivp,0fg*fmp>=6,  &%>X@: O;$:.lz&0@",
"@..; ##..=,oo## : $%O<*sj5#evlphaX20;#o#=..4 X%%>XOaO:.o=0#@",
"@oo..&&$.=4oo,o&$$$:::%$$O,icMcG,.q.66&:$$o,&@::-@ @>O$&&&&X",
"@&&...#$.###&4oo#$$:@@ o=#o=M+19=,=,,,4$@ oo *g*%##@<<-%.#&-",
"<<<<<<<<<<<<<<<<<777777<<<<<w+J7<<<<<<<77<<<7yyw<<<7yyyw7<7w"
};
