/* XPM */
static char *result[] = {
/* columns rows colors chars-per-pixel */
"60 60 22 1 ",
"  c #52583D",
". c #5F6448",
"X c #3F462C",
"o c #3A4127",
"O c #484F34",
"+ c #4F553A",
"@ c #5B6045",
"# c #575C41",
"$ c #696D51",
"% c #444B30",
"& c #63684C",
"* c #293017",
"= c #6E7256",
"- c #353C22",
"; c #4C5237",
": c #75775C",
"> c #222910",
", c #2F361D",
"< c #181F09",
"1 c #7F7E63",
"2 c #92866C",
"3 c #A59279",
/* pixels */
"O@@#+; +##@&....@@@@.@#####   +;;; +;  + ##+  + # ## + # +#X",
"o.@ XoXX;O ==:$&..$.&$@@#+;ooXooooX--%OoXO;%%++X;+#OXX;+X%O*",
"-@&.OXX%%XX+$=@Oo%#.&$  #+O-,OO%O+%o .& %; #O;@  ;%--o% +o-*",
"*#$@;%%OOOXX#=.#X% ;##OXO@$;,-O%+.$$&@.$ +#$@ $=#X-,,*X +;X*",
",#.#%%;  ;%X&=&##&=+OOX;%&:O>>>, =:=.X%&#%%;+ &$+--,*,OO%%X*",
",@&.;XO+#;%#$:= X;@%X%XXX%o*-XX,,o%%%%O #%XXO.@;Xoo-X%;Xoo-*",
"-@&&@OOoo**--o%%Xoo*,X*>**-O#@@ %o***% #&&@ Oo*>>>*,oOX-Xoo*",
"o.$.%,>>***-*>*,,-X-<>>>- ..&=$.&@%,>*,%# o,***,,,,>>>,-O;O,",
"X&@o**-XXoX @%%#%,>><>%% &==:11=$$@OXo*>*>,%;X+#+ Oo-,>*o%;-",
"X&o>-o% .@=1:.+; #oo-,O+$$===::=&&$& Ooooo;;O#$1:=@+;Xo*>oO,",
"-%>o;#.$12332:.o&:@&#OO .$=:121:=$=& O%@@@:OO=13332:&@ X**,>",
">>*% .:211321:$O&2$1$.#; &=12331:=$.&@#==:2;#=1232331=. %>><",
"<>,O.=11:$=:==&X 2$:.&&..==:2321:=$&=&$1111-%.$=:=:121=&;*>>",
"<>%.=111:$==..;-%:.&&&$$$=:11221:===$$=1211*O#+.=$=:12:$ ,><",
"<*;.=1::=$&.#.+,;:$&#@$$&==1111::===$&$=:::,%@  &&$=:::=.%*<",
"<,%@::==..#OO X> &$$#&=:=$=:1111=====$$&=$:-,+;O;.@$==1:& ,>",
"<*%.:=&.+OX,-X*>oo#&.==:::$=:1::$=::==$@&@$o<-o,-OO@&$:=@%*>",
"<,;$:$#Oo*><>><-%o#+.$::21::1:::$=22::&##+ ;>>><<>,XO.=:&%><",
"<,;&=& -><<<<<*OX-OO@#1121:13123:=211$##X%-;X<<<<<>>o.==&%*<",
">>X#$.%>;%<<<<-->*,;+X#:=$$12:22=&==$O%@X*>*o*<<<<@** $&#-**",
",*- .;*X1$<<<>*><>>; o,;@;#$=&$=&; @%-O#o><<>*<<<,1:*-.=O*-,",
"-%>oX,*&.=-><<<<<**+.;,,%%OO#;++OXOXo+# o*><<<<<>#$&%<% ,>%*",
", **o>X& $$.O<<<-oX @# Oo%o,-,---XXo#..#;oX>><*=1&+%#>-*<-%*",
">X%<><X$ + +&>**XO; @$$$ -,X%oX%o,%.$$=.#%O,,>+:$. &&<<<*O,<",
"<*X,<<-$@Oo%#o>>-;# @=$::#+=:&=:.;$1:==#@ %*<*#&&& &&<<<;%,<",
"<<*X><-#%%Xo :#*X%@@;=:1::$22=13:=11::.+. X-,&##$$@@.<<+@X-<",
"<>>,%>o@+@@%+..X%o&$%#21=:222=1312=:2:X@=+XO;#O@$=&@.*%=#@O*",
"*X-oo.=#;##oo%o*-+ &$#121&232@=33:$22$#: .%o,%+@&$$&&&=@@.+*",
",O% oX#O%;X*,->-@& o=23332:33+:31133332 o$.O**O@..$&+%#&$. *",
", #@;O %Oo,-%,%&=. *%$:2222=2&22:2221: --&$$.-*O@@&.%% $$& *",
", @.+; +o*,%;o&=.#.o%o-Xo@=$: =&:&Ooo-%X+::&@%*o;#@.O; $$. ,",
"-#&....#ooXXOo $@$=;**,*>ooO%*XXOo*>*,*%$::$+o*,X+&&%+@$=$+,",
"o$:&&@+;O@ + X@&$@=.X*>*o-Xo%*oXoX-,**-@=:1:=X>,%.&@%;@&&=@-",
"-$&#$+oO.$$$ %=::;  ;%X+#%+#@=$##% +OX++#&=:$O>-,%++O# +;@ -",
"-  .$%o ===1&XO&.o,,>,#&=O@:$2::$%#$@%**-%#$O--o*-%;;;O+ #@o",
",+#$&oX $==1:%*+%*<<<< .=#$21=$2$%.$@-<<<<o;-,O-oX%%;  @@ +o",
", @&#ooX#$$:::-,-<<<>-$=:@=21.:32+&:$#*<><>-*;OXO# O+# @#;+-",
", @@+X%oO.=$&$:O><<*X@$21;&32&233=.3:&+-><<X.+%; @+ ##;%%OO*",
",;@&&O%O. .$@ =1;>,-oO#:$%123.2322&31#%-o*<+@;+O @O &@O%+@#,",
"* $$: + $ ;.;O&%-,%X>O+:1=1%2o&=;2=3 #-*Oo*X.## ;+O   +O@$$o",
",@$.=.#.#. o-X#X+o;X,@=&1: *.<o *::1#:X-%%o$..@@ O; ;# +@=&o",
"- @.&@  #& ,*,O #-%X*@:&==*>****<+1&=$X,%oX@#&..@%X ..@#@@ ,",
",;+#&.+###--,-XOo,;;o@#$$=*>,-,*>%:&$#;X+X*X $==$O $$. @&O%*",
",;O #+%+ ;*ooX;%*X#;.:-@&=%%.O;&-.$$%;1;  **;$11$#==:#O.@OO*",
"-+XO ;O;#X,X;%%,-+@+1=-X@&=&:&=:.:@#,%2#@;->o$1:+#::=#%++;+,",
"- O &&@+&o- ##->X $O1=o,O+@##; @##OX*+2#@#%,*.:#X&==#;;;;%;,",
", +#&$+ $XX###,>o  o==X,+ #+&O#@;@+%, 1 %@ o*.#oX#..;O +O+O*",
"*X;#. o%@%+@.#,,%&;o.$+OO &+$@&. .;%+#$;,;Xo* O;.& ;+ +O;&;>",
">-%O;+%XOO .#&%,+.#* .O+%O&;&O@###%% +$%-&O->X@$== %XXX%+.+*",
"*--oO  ;%;+@@=@,%$$*,O%%;#..&;@@$ @XOOO*%$+o*X#=== O%X% &$ ,",
",XoX%; XX ##&==,o .o>o #%O#&&.$.$O%O#+-,+.%,-X%@$$.@ +#&&.#o",
"o+%O  #OO .#&=:X-OO-oo@&%XXO%%O%%oX.=@%XX;%*%-oO#&$@  #  #@o",
"X+;; # XX+. @$=$,*-*XX; ,*oo----oo* ..;-*-*O+oo .$$.+;;%+@@X",
"o++    +;#.@.@@.#Oo>*oX,X-**><<>**Ooo+o>*O @%-o $&.#OX;#.&&X",
"o+ #+;@@+@&$=$#+OXOX>o-;=&XooX%O#.:.X%oX=.++%oXO&@;;;X &$&.X",
"-+;; O# +@&$$&.+X,*X;@===&%-X%%O.$.@=11:$  @;oX%O %+ O#$=.@X",
"o# + # + &$..@ %o;XO;;&$$$&%+&#O;&&#@..@&##$ X;;-X%O%O#$$.@X",
"X..##@;O+.&#O%O+;OOo%+&$$$$@O&.&  #$$&@O++.$@%O;o% X-%+..@@o",
"o@.#+%o-;# oo @.#OOoX% .&..@XX>;.+O.+%@oXO;. -*,;@.%,,o;##@-",
"*,,**>>>*,*>*,,,,**>>>**,,**>><>*>>*>>*<>>>**<<<*,*><<<>***>"
};
