/* XPM */
static char *result[] = {
/* columns rows colors chars-per-pixel */
"60 60 39 1 ",
"  c #545A3E",
". c #444A2F",
"X c #3D432A",
"o c #40462C",
"O c #5A6044",
"+ c #4A5035",
"@ c #474D33",
"# c #50553A",
"$ c #585C42",
"% c #4D5338",
"& c #64684D",
"* c #5E6246",
"= c #6D6F54",
"- c #62654A",
"; c #53563C",
": c #3A4027",
"> c #373D24",
", c #343A21",
"< c #727358",
"1 c #686C50",
"2 c #2C321B",
"3 c #5F6449",
"4 c #2F361E",
"5 c #282E17",
"6 c #232913",
"7 c #6A684E",
"8 c #1D200D",
"9 c #79785D",
"0 c #605D44",
"q c #68624A",
"w c #5A573E",
"e c #8A7F65",
"r c #4E4B34",
"t c #414334",
"y c #4E513F",
"u c #81785F",
"i c #9D8770",
"p c #776C53",
"a c #AF9D8B",
/* pixels */
"XOO$##;;$$*-3--3OOOO3O$$ $  $yy$yy y#  y$  %#;yy$ $$      $@",
">** o:oo%@&9=<=&*313&&$$ ;%otttttt@XX+#@%@%.t@@t #$@Xo%#o.@2",
":0&-+oo..@;-==O@.%O3&&#  X466666554.;-&$y  $y O##%.>>>@ %X>5",
"2 1O+..++#%.$=33Xo;%3 X4562:o:XX:,55: O&#; 1$ 1<;X,445Xy#+X5",
",$3$.@+  %.X&<&$ &1#+,6,@;OO&1&O1$%o58o&$o.%y$&1#>,254@+..X2",
">O&*+o+#$%.O=<=;X+OX6,%*1=<<<999<$$$#>5o +tty&*#o:X,Xt+oX:>2",
",O&&Or %#%+11=& .X:85%*O=9<<ueie<$O-1OX6X3333=<q@..o++o,oX:5",
"X31&&$*$#%#3111--+64,+$O1<<uiaaau*=9<= X2.OOy&== ..@@+::@++4",
"X&3&=&&1Orw311--$4:;.r&<99eeiaai9-9e<<&#X6yO$3=91-;%@%#%..+,",
"o-%-1=7=&r%-&&*&,,%-0wO<9ueiiiie<7e97=3w;2>O$O<9u<13%+O$##+,",
",%%*Owq-;X;&-$$;6o*00=--=9eiiiaieuu=011&;X5y; 1<e99=#.+##X45",
"6@O-0$0+,,@# 3O25@3+$<<-*=eueiiiie=0q=11+r64@X.+$3O%@%;;.258",
"4-=*%#%,2>>X@ #6>*&r3===q-9ueiiiuu<=71=<&r56tX>>##o,X%%.o,28",
">1&  @>,,,,:>>,6o7qqq 1&O-=<uiiu99<<<**=-.58.XoXooXX:ooX +48",
"2$ $O;>X@o@-#>46%=p=O% $&-79<eie<<=&11-$O%,6X@r@,:%+:XX:% ,8",
"2#O&O+4.; -1;;.6#qup33$3131<9eeu<1=7&<=$0w>5>+%+oo++.@t@@X,6",
"4#*1#oX@$1O* O@2#q97-1***1&=<ue9=<=1&=0wqq:2, $ + ;#*O;%.>46",
", O33  O=<*-$3:>+pp1-*&3O-1==9e9<<<&&=w$=pr2, #++#%+*1-$;@46",
",%3-$+#*<9&OO$6,rpp1&q=<Ow0-11==9<7w*0$&=p;4,o>+%;*O$=13 %:5",
"2%11$% ;=<=  .6,+up0qq9<*ww@ww*11q;#$$*31p%,5>.=&&==$&11 %@2",
"4O=33$* 39<* 28:;97w*&9=10rw;$7==q;O-1-#;q+X6%+*=11&+@$3%;+4",
">O-3*O1*;9<$%86,%&* O==-q&rw-1==7-313-&#.%.X6+%@&-3%:>%@.+@4",
"4%% #$&3+&7;@85>o-###-117=0w0-1<70 O# &**.::6:#;3O%..::X.@X2",
"6>.#@;-1#@#;+82:,0%oX;*-&=1&- O1&*%O# 3 7r:>5:wO&* -*o:oX:28",
"85>@;#O1O@>@@82:4o+:. $$311=&##&-$#*;rX:;X445X;O3&;-7X>o.X28",
"886,o%; @@oo.84444O.@;$O3-11-%;00O$ %:44o,44,:oO-&OOO:>++.>8",
"8682X ;#%OO++85456=@>@ ;$#-**.;*O;;+;X2X462,o#%Oq1&O%:.O$O@2",
"2o,X,.##%$ :o46456*@2>++;#$$ >ow+%%.;>6 465t,;;O&111$.%$$*#2",
"2+.;::#+.%o5,X242,.X,6,.@%@@%44+,%rX.25 +>o@82 *3*11#X &&* 2",
",; O+@ .@X4>o64X+p;,>564XX@,o5642+o,:4X+Ou 446, OO&-@. 1&-;5",
"4 O3#%;%:24o52w>$-*>-O:,X,.4445>:@X4:.+@+#:Xp>6.%$*3@#;1=0;4",
",$3-33- :>o>6w=:4.<.1<&.@.o%2>2@  @@@;=wq#6tw45o.#&-.#*1<1y4",
"X1=3&O#%+O .57&w4@<$>#<*%$w&-:>$$*@;<o@;- 56:2:X+3&*.%*&&=O,",
":&*$=#:+31=O,&3X2oO;424$=o.o0>4@>7:=<56>+orr85:,4o  +$###O >",
"> ;*=.X$<=<&X%>57>@+:884 -.>25625=Xw2865ooOp55:X2,.+@%@%+#OX",
",#$1&o.$=1<-;26w=,o @>5=$0X:58886:6:<t.>+X;02,o;Xo::% #$O##:",
",;O-$Xo. &1-.o2&&4@$+X:ia:,X222:,68<a$@or5%:oX%#@$@o+;+$$+#,",
", O*#o@X+3<<@ o@;,@;++t$34o;@;+ %XXy1y O#,XXX5.# O+%$;:>o@@2",
"4+O&-@@%- -<w5@@+3 *O r+X.7p0<w9$+%,.$q1<=*>%44+ O@;&$,4%O$,",
"2#11< % =$%3.66.@ +7.O+#+$  9u$e<#7w$=eqe;,;<o> @+. #%%oO&3X",
">*1-=3$- 3;o,5,.:42&o*9<*<>$iq40=:wee;<>+@7=O%.O%>.%.# +O*OX",
"> O3&0;;$- ,25.O-7.>@%<e<O5%7:,X$t5u<5,2:=1;++@&*X,#O3O O$;,",
",%;O3-#$$$>X>5:@#-<>,,#@%4>o 0w7;tXo@52tq@+ X+%=1@;11-;*&+.2",
"4++ $;@#;+2XoXXt. &<t52546y%qepe7ww642t<r>%&o q9&#<<9$@*O++2",
">%o+w##%+:2.:o,@#O$-9:245#-77quuepq2,4u<:. %+0e9;O9<< .##y#4",
">;@wq-O%*.: r+2#O3-3=;64X<Xuq0q0p70X>5&=:>.>*pe;o1<= %.@%@+4",
",;%$-7##-@@O0@>:$*&11@52y;rpw0;@yyX$>5+->o,@weO4> **+.@++#@4",
"5or$3 X.$.#*7@ 4X3&1&:22 57r#+0r:$63#,o 24O 7-.+3-;+..++y-%2",
"5>.@+%..+@;-*<$->:.%@82: 2rX..X:5@2;-+4oX..00:O=<<;.@+#@;*;2",
"2>>:@ ;%.r#O*eu$3.42252#7X@X.>,>2o@y1O:=&@4q.,$=<=;+#%+ &1 4",
"2o:o.%;.o;O$&<e-:7&-#..$< 0#- +$;$q#33$725y*XX+O1=*O$;$&&3$:",
">%.@;;$@@ * &<<Oo5@ $#w0<Oq#0wo7;w7%=7tXqp=;o:t+O11*;; ;;$0X",
"X#+%;  .o%O#*11$;+o,>77;1&,4,,4:5:$0qw%uu3%#X:t%O-1*#+%@#OOo",
"X##  ; #%w3O3OO @#-7w@.>X$%+%X@.:@*9:.uu1%.#o>X#-*- @o+$O*-o",
":#;$#%OO#O-1<1$#.,oo#07pqorrw$3*@.2$-119=#.#.>X.3O%+%.;q3*3o",
">%++ @Ow#*&11&*#o,2oo <<9=:5.r>oX:0u=11=1 ;O+,X.+ @;;+ -7*0o",
":$ y $;##-=3*O .:%o++%&11<97#rrr;p9-O*3O& $1;o%%>o++@+ 3-0OX",
"X-3$ Orr;3&$@.@#%++o@%&111=1O=<91$$11&O+##*1O.++:. .t+#**OOX",
":O*$;t:>r$ X: O3$@+Xo.;3&33*.o:#O;+* #O:o@%3 >,>%O*.4,:% $O,",
"544258862458544445566652445566855665555886625888242688865226"
};
