/* XPM */
static char *result[] = {
/* columns rows colors chars-per-pixel */
"60 60 15 1 ",
"  c #444A2F",
". c #52573C",
"X c #494F34",
"o c #4D5338",
"O c #575C41",
"+ c #3E442B",
"@ c #5C6146",
"# c #393E26",
"$ c #61664A",
"% c #686C51",
"& c #343821",
"* c #2F321C",
"= c #272B16",
"- c #737559",
"; c #1A1F0D",
/* pixels */
"%.+##&=*.+#+##$$+###& $o+#+#=+=;&+#&&oX&#+#=  *###&+X#*#+#&o",
"o#X@@X&*&+O$O++o#X@@X& #+O$O+**&X@@X&&*+O$O+&#&X@@X&#&+O$O+&",
"+# .. ##&+X.X+&## .. ##&+X.X+&&# .. #+&+X.X+&&# .. ##&+X.X+&",
"+&#&&#&#&#&&&## &#&&#&+&#&&&#&+&#&&#&+&#&&&#&+&#&&#&&&#&&&#&",
"## ** #&& #*# &++ ** #&* #*# &&+ ** #=*X#*# **+ ** +;*X#*# *",
"#*;##;*#&=*+*=#+*;##;*&&=*+*=##*;##;**&=*+*=&**;##;**&=*+*=&",
"X*;==;& +;;=;; X*;==;&#+;;=;; X*;==;&++;;=;;  *;==;&X ;;=;; ",
".+=;==+oX&=;=&o.+=;==+  &=;=&  +=;==+XX&=;=&Xo+=;==+XX&=;=&X",
"% ;==; %@=;*;=@% ;==;#.O=;*;=.. ;==; @O=;*;=OO+;==; ..=;*;=@",
"%$*##*O%%+*+*#@%$&#&=+X$ & &+..O&##*X.X#*+*#OOO# +*oo. *+*#O",
"Xoo@@oO@o#.@OX.@@@@#&  oO$-%OO@$$$@X#XX..O.oXXO%--@OX ooo+&#",
"*#+ ++ #**#++  +++&=*++++ X  + XoX#*#+#+#####&##+ ++###+#*==",
"X$%@ oo#*+#+.Oo.$ *=+O@.o@%%$$O$%%@@O.$%@@. + ++OOX+ ..X+#+&",
"o%%Oo *&&***#&#oo=;  & X o@%@%.O%%@@@oXOO.+#+#++++#+# +&##*=",
"+OoO@O* X+ $o* @ &&.X*#XoXO$OO.O@$.X.$X# o&#+ XX&#oX#+&&##&*",
"+.O$@o=+..$%.oO@o#.OX # XX.O$Oo$@@OXo$@ #X*#XXoX+ XX X  +&&#",
"X.@%o+&+O%@@OO@OX ..o.. +oX.@OO@O@%..O.XXo#oO.O.X...@@.o &=&",
".O@@OO.O%-@$O@$OX o.oO@o+ XOO@O%@$$...oO .XoO..XX.oo@%$O. =*",
"oo@@oXo@--$O@$@@.X .O.O@X##XXooO$@.#XXo@+ o.o++oo.@O.%%@Oo#&",
"+X%%OoO.%-%O..O@@OX Xo$$.#***&+oo #&o@.O+*&###X%%$%%.$@$.o +",
"o@%$$O@.@--@.XoO%%O+ O$@.+=##&X$@X+ O%OX&;* O@X@%%%$X O@o.oX",
"O@$$@@%$O--Oo.OO$OX+X$@oXo*&..oO.oOOOOX +*XO@@X $$$X#*o +X X",
" .oOXO$$.%%..%-$@oX #o@@O@ #XOOO. .-%O++OoXo..o.@.X  &##  ++",
"*#X.XO$%O...$%---%o&*+o.@OoooXoO.X.%@@.o #Xo.o.@$@.$$+&++#*=",
";=# ..O%@o#X.$%-%$ &#XXoOO@$OXX.o..oXO%@#&X..  @@@.$%&&+ +*=",
";;;* .o.  ++O$%-@   X.oO@$$$O.Xo.XX+#X%%.X.O@ +@$@@@@&#XX #=",
"==;= .X.o@$X.@$%o##+.OO.$%.o.. X. X*&X$@.O$OO.o@$$@@.# @O@X+",
"  &+*+X.oO@#+o++#&# o.O.$@O$O  ..+*=&..o+ .@.o.@$$O%O oOO@. ",
" X O##.X o+=*+ o.oo.X.@@@.O$$ #..#=* @+#X...+ o@$@@$.+O$$@X+",
"..O@XX. X+*#XO$%%O@@.o+.@oo@O.+Xo*;#X@#*o@@o&&#X@@@$o .%%$X#",
"XO@$.o.o#**+O@$%$@%$$@ Xo  OO@.Xo#*XoO#&o@-@+*=&oO@$XX %%@.X",
"OO@$@@$O##+# O$$@$%$$@O@OoXO%@OX &+oOo&#.@%@ *** .$$ .@%-%.o",
"%%%$$@ooX@. XO$%$%%.o@O%%$.%%%$+*#XXOo+X@..OX&=*X$%@ o@$$%@O",
"@%@O%o&o@%%$$-$%%%OX$%O%-%O@$%.+# Xoo+.-@ XX XX#* O@XO...@OO",
"OOo@%#+O-%---@o%--. @.@%--%oXo + O.ooX$%.  o+ o#=&o.o.oo.O@%",
"..O%%# O%%---$oO$O + o$---%.oOo+ XO.Xo%%OX o  #&#+X .O.O@..$",
"..@%%##+.%%--$%%$oX XO%%-%-$O@.....X $%-OXOo X#+XO.XoO.@OX..",
".O@@.&X& $-%$$$.@XX  O%%%%%$$@$$@O+* @$$$o@.X  o.Oo.OOo  XXX",
"XX@%% Xo$.$%@.%XXooX O%%%$ +%%%%$.&*.$.X.XX.XX.X.@X.$@X .@Oo",
" .%%-..O%Oo@oX$#+.oo O$%%.*#@%%%@X&+$%$+ o.@@OO.X.X...oX@$$@",
".@%$-$O$O@.#&+O#oooXXoO$$O#+O@O.X##.%%$o X@.@@@@.Xo.oO.o@@@$",
"OO@@$@..O$O*=*Xo.OooXo...X#+o.X&+&&O%%$%.X@oO$@$@ +.@$OOOO..",
"oo.O$$.OOO##&#+ o.o + ##+#==  +#+*; %%@$O+o..%--%X.$$$o@$X  ",
".oX.O. ..X*+++o  OO.X *#&+*&+&#++==#O..- #o%O%--%O---O @.+X ",
"@o+XO.ooX#* Xoo o@OO.  X#&&  #+XX=&#.O$%# O-%%--.O--%o+XX oo",
"O. O$$@o@+#.O$@OO@$$@OOOX== o &oX&# .O%%+#XO%%-O+$-%.X+Xo oo",
"..oO$%..$X OO$%%@@%%%%@@X*=#   X+ #oOO$$# & $%O#+O@@X oX OXo",
" +XO@.& O .@$%-%$$%%%%%@X+&#XX#+#&o..@$@+X+oO@XX$$ooXooX.%X#",
"#&+  o++X .%%%--%%%$%%%Ooo+Xo.X&+ . X$%-oX.-.+$---X+.X. .@. ",
"+&=* ..o Xo$%----%%$%%OOO.Xo.@O+ +XXO%$-$o@O &O%--+ ..X.$%.o",
" +#&+o.++.@$%---%%%@OO.@$@O@$@Oo & .@$$%@o. #& @%%@@..O$$@O$",
".  X..OXX.@O$--@O$$Oo.O$%%@$%%%X++ oo@%-%oo.+**X@%%@..O..O$%",
"OXXoo.o++X@.@%%O.oOOXXo@%$OO@$OX++ XXo%-%.X.+&#.O@$@oXX XOO%",
"+####+###+++ X + #####+XXXX + +&&####& oX#&#&*&+ + +#&##+++X",
"$..O..@@.@$%--@O@..OX.@%%%OO@$$.o..@@O$-%.X.X+Xo@@.X.XO$$@@%",
"X ++++   Xoo.o   +  ++X.O. oX.oX+   oooOo + +*##+ ++ + XXXX.",
"#X+*+X#* X&&X *#X+*+X#* X&&X *#X+*+X#* X&&X *#X+*+X#* X&&X *",
"ooo+ooo oo  o. Xoo+ooo oo  o. Xoo+ooo oo  o. Xoo+ooo oo  o. ",
"         X              X              X              X     ",
"* &=& *=#+==+#=* &=& *=#+==+#=* &=& *=#+==+#=* &=& *=#+==+#="
};
